<svg xmlns="http://www.w3.org/2000/svg" width="47.098" height="47.098" viewBox="0 0 47.098 47.098"><g transform="translate(0.957 1.058)"><g transform="translate(0 0)"><g transform="translate(0)"><g transform="translate(0 0)"><path d="M14.2,21.379a3.92,3.92,0,0,0,0-5.543l-4.158-4.158a3.919,3.919,0,0,0-5.543,0l-2.281,2.28a5.871,5.871,0,0,0-.742,7.4A91.163,91.163,0,0,0,26.96,46.838a5.881,5.881,0,0,0,7.4-.742l2.281-2.281a3.922,3.922,0,0,0,0-5.543l-4.158-4.158a3.92,3.92,0,0,0-5.544,0L25.551,35.5A93,93,0,0,1,12.818,22.764Z" transform="translate(-0.5 -2.734)" fill="none" stroke="#a3a3a3" stroke-linecap="round" stroke-linejoin="round" stroke-width="1.5" fill-rule="evenodd"/><path d="M52.931.5,33.5,19.932" transform="translate(-7.851 -0.501)" fill="none" stroke="#a3a3a3" stroke-linecap="round" stroke-linejoin="round" stroke-width="1.5" fill-rule="evenodd"/><path d="M42.108.5H54.849V13.241" transform="translate(-9.768 -0.5)" fill="none" stroke="#a3a3a3" stroke-linecap="round" stroke-linejoin="round" stroke-width="1.5" fill-rule="evenodd"/></g></g></g></g></svg>