<svg xmlns="http://www.w3.org/2000/svg" width="44.942" height="38.71" viewBox="0 0 44.942 38.71"><g transform="translate(0.75 0.75)"><g transform="translate(0 0)"><g transform="translate(0 0)"><path d="M39.167,42.464a9.935,9.935,0,0,0,4.456,1.054A9.548,9.548,0,0,0,53.3,34.125a9.166,9.166,0,0,0-2.667-6.477,18.422,18.422,0,0,0,.109-1.99A18.215,18.215,0,0,0,45.128,12.5a19.331,19.331,0,0,0-13.55-5.449c-.49,0-.986.018-1.475.054" transform="translate(-9.857 -7.053)" fill="none" stroke="#a3a3a3" stroke-linecap="round" stroke-linejoin="round" stroke-width="1.5" fill-rule="evenodd"/><path d="M18.186,9.066A9.935,9.935,0,0,0,13.73,8.012a9.548,9.548,0,0,0-9.675,9.394,9.166,9.166,0,0,0,2.667,6.477,18.421,18.421,0,0,0-.109,1.99,18.215,18.215,0,0,0,5.612,13.156,19.331,19.331,0,0,0,13.55,5.449c.49,0,.986-.018,1.475-.054" transform="translate(-4.055 -7.267)" fill="none" stroke="#a3a3a3" stroke-linecap="round" stroke-linejoin="round" stroke-width="1.5" fill-rule="evenodd"/><path d="M26.251,20.627a5.211,5.211,0,0,1,3.463-.314,6.307,6.307,0,0,1,3.75,1.937,3.682,3.682,0,0,0,2.411,1.421,3.744,3.744,0,0,0,2.739-.651,3.539,3.539,0,0,0,1.463-2.34,3.473,3.473,0,0,0-.67-2.66,12.67,12.67,0,0,0-5.825-4.057,15.345,15.345,0,0,0-7.117-.83c-4.153.563-7.069,3.076-7.8,6.721a7.06,7.06,0,0,0,.793,4.83,8.812,8.812,0,0,0,3.5,3.451,18.682,18.682,0,0,0,5.126,1.7,12.426,12.426,0,0,1,3.312,1.04,1.478,1.478,0,0,1,.794.972c0,.063.012.255-.339.5-.817.581-2.539.562-3.794.3A6.392,6.392,0,0,1,24.4,30.729a3.678,3.678,0,0,0-2.411-1.421,3.746,3.746,0,0,0-2.739.65A3.543,3.543,0,0,0,17.782,32.3a3.476,3.476,0,0,0,.67,2.66,13.749,13.749,0,0,0,8.044,4.7A15.732,15.732,0,0,0,29.723,40a11.14,11.14,0,0,0,6.482-1.874,7.984,7.984,0,0,0,3.133-4.453,7.376,7.376,0,0,0-.659-5.362A9.333,9.333,0,0,0,35.2,24.768a16.721,16.721,0,0,0-5.072-1.747,13.8,13.8,0,0,1-3.6-1.133,1.066,1.066,0,0,1-.615-.747A.619.619,0,0,1,26.251,20.627Z" transform="translate(-7.102 -8.381)" fill="none" stroke="#a3a3a3" stroke-linecap="round" stroke-linejoin="round" stroke-width="1.5" fill-rule="evenodd"/></g></g></g></svg>