<svg xmlns="http://www.w3.org/2000/svg" width="46.581" height="43.472" viewBox="0 0 46.581 43.472"><g transform="translate(0.75 0.75)"><g transform="translate(0 0)"><g transform="translate(0 0)"><path d="M45.581,43.372a3.236,3.236,0,0,1-3.109,3.109H3.609A3.236,3.236,0,0,1,.5,43.372V21.609A3.236,3.236,0,0,1,3.609,18.5H42.472a3.236,3.236,0,0,1,3.109,3.109Z" transform="translate(-0.5 -4.509)" fill="none" stroke="#a3a3a3" stroke-linecap="round" stroke-linejoin="round" stroke-width="1.5" fill-rule="evenodd"/><path d="M40.5,32.273h7.773V24.5H40.5Z" transform="translate(-9.409 -5.846)" fill="none" stroke="#a3a3a3" stroke-linecap="round" stroke-linejoin="round" stroke-width="1.5" fill-rule="evenodd"/><path d="M10.587,26.5h3.92" transform="translate(-2.747 -6.291)" fill="none" stroke="#a3a3a3" stroke-linecap="round" stroke-linejoin="round" stroke-width="1.5" fill-rule="evenodd"/><path d="M10.587,42.5H28.228" transform="translate(-2.747 -9.855)" fill="none" stroke="#a3a3a3" stroke-linecap="round" stroke-linejoin="round" stroke-width="1.5" fill-rule="evenodd"/><path d="M10.587,48.5H34.108" transform="translate(-2.747 -11.191)" fill="none" stroke="#a3a3a3" stroke-linecap="round" stroke-linejoin="round" stroke-width="1.5" fill-rule="evenodd"/><path d="M5.543,12.5H42.785" transform="translate(-1.623 -3.173)" fill="none" stroke="#a3a3a3" stroke-linecap="round" stroke-linejoin="round" stroke-width="1.5" fill-rule="evenodd"/><path d="M10.587,6.5h29.4" transform="translate(-2.747 -1.836)" fill="none" stroke="#a3a3a3" stroke-linecap="round" stroke-linejoin="round" stroke-width="1.5" fill-rule="evenodd"/><path d="M15.63.5H37.191" transform="translate(-3.87 -0.5)" fill="none" stroke="#a3a3a3" stroke-linecap="round" stroke-linejoin="round" stroke-width="1.5" fill-rule="evenodd"/></g></g></g></svg>