<svg xmlns="http://www.w3.org/2000/svg" width="42.905" height="44.292" viewBox="0 0 42.905 44.292"><g transform="translate(0.75 0.75)"><g transform="translate(0 0)"><g transform="translate(0 0)"><g transform="translate(0 0)"><path d="M13.9,37.461l-.025-.006a4.914,4.914,0,0,0,1.259-3.288V30.461a3.96,3.96,0,0,0-3.956-3.956H6.106a.836.836,0,0,0-.836.836v6.826a4.914,4.914,0,0,0,1.259,3.288l-.025.006a7.115,7.115,0,0,0-6.45,7.075V47.9a.836.836,0,0,0,.836.836H19.518a.836.836,0,0,0,.836-.836V44.536A7.116,7.116,0,0,0,13.9,37.461Z" transform="translate(-0.054 -5.945)" fill="none" stroke="#a3a3a3" stroke-linecap="round" stroke-linejoin="round" stroke-width="1.5" fill-rule="evenodd"/><path d="M42.621,33.086a3.5,3.5,0,0,0,1.042-2.5v-3.4a5.678,5.678,0,0,0-2.44-4.662.837.837,0,0,0,.02-.184V20.36a3.972,3.972,0,0,0,3.47-3.936V8.049a3.971,3.971,0,0,0-3.967-3.967H27.753a3.971,3.971,0,0,0-3.967,3.967v8.375a3.971,3.971,0,0,0,3.967,3.967h9.516l1.138,1.138c-.141-.011-.283-.018-.426-.018A5.688,5.688,0,0,0,32.3,27.192v3.4a3.5,3.5,0,0,0,1.042,2.5,7.093,7.093,0,0,0-4.124,6.434v3.387a.836.836,0,0,0,.836.836H45.909a.836.836,0,0,0,.836-.836V39.52A7.093,7.093,0,0,0,42.621,33.086Z" transform="translate(-5.34 -0.951)" fill="none" stroke="#a3a3a3" stroke-linecap="round" stroke-linejoin="round" stroke-width="1.5" fill-rule="evenodd"/><path d="M18.139.054H8.418A3.971,3.971,0,0,0,4.451,4.02V12.4a3.972,3.972,0,0,0,3.47,3.936v1.987a.836.836,0,0,0,1.427.591l2.547-2.547h4.343" transform="translate(-1.033 -0.054)" fill="none" stroke="#a3a3a3" stroke-linecap="round" stroke-linejoin="round" stroke-width="1.5" fill-rule="evenodd"/></g></g></g></g></svg>