<svg xmlns="http://www.w3.org/2000/svg" xmlns:xlink="http://www.w3.org/1999/xlink" width="421.715" height="286.155" viewBox="0 0 421.715 286.155"><defs><clipPath id="a"><rect width="92" height="165" transform="translate(0 0.226)" fill="#cce5e0" stroke="#707070" stroke-width="1"/></clipPath><clipPath id="b"><rect width="32.815" height="58.852" transform="translate(0 0.226)" fill="#83c6ba" stroke="#707070" stroke-width="1"/></clipPath></defs><g transform="translate(-1186.785 -193.24)"><g transform="translate(1608.727 354.5) rotate(90)" clip-path="url(#a)"><circle cx="75.375" cy="75.375" r="75.375" transform="translate(19.855 9.777)" fill="#cce5e0"/></g><g transform="translate(1219.6 390.011) rotate(180)" clip-path="url(#b)"><circle cx="26.885" cy="26.885" r="26.885" transform="translate(7.082 3.632)" fill="#83c6ba"/></g><g transform="translate(1235 194)"><path d="M2178.213,176.544c.551-6.418,7.041-6.063,7.481-2.588.5,3.954-3.105,3.9-3.105,3.9a84.174,84.174,0,0,1-9.247.081c-3.83-.173-1.458-7.69-1.458-7.69s4.927-26.531,32.839-23.386c20.687,2.331,28.008,25.7,16,43.537-3.168,4.709-2.024,13.957-2.039,14.86,0,0,49.563-9.622,47.534,67.484h77.1" transform="translate(-2040.008 -146.598)" fill="none" stroke="#00ac6f" stroke-miterlimit="10" stroke-width="1.5"/><path d="M2140.06,188.251l-1.476,7.87,3.334,17.415-13.075-.206s-46.859-2.766-45.118,58.595l-.151,9.694h-70.446" transform="translate(-2001.997 -156.617)" fill="none" stroke="#00ac6f" stroke-miterlimit="10" stroke-width="1.5"/><path d="M2143.642,321.334l112.917,139.39,24.349-15.218-8.116-14.2,17.246-12.175-60.51-148.977-24.167.1a2.4,2.4,0,0,0-2.322,2.341h0a2.192,2.192,0,0,0,2.249,2.24l11.856-.308a2.018,2.018,0,0,1,2.254,2.17,2.262,2.262,0,0,1-2.325,2.289l-11.69.305c-2.618.066-2.486,2.223-2.486,2.223h0a2.191,2.191,0,0,0,2.249,2.24l11.856-.309a2.053,2.053,0,0,1,2.25,2.118h0a2.19,2.19,0,0,1-2.319,2.219l-11.217.248a2.4,2.4,0,0,0-2.321,2.341h0a2.192,2.192,0,0,0,2.248,2.241l23.413-.486" transform="translate(-2033.391 -176.317)" fill="none" stroke="#00ac6f" stroke-miterlimit="10" stroke-width="1.5"/><path d="M1998.471,454.287l41.26-157.6-30.437-44.642,91.989.676,29.085,45.995h49.376" transform="translate(-1998.471 -171.962)" fill="none" stroke="#00ac6f" stroke-miterlimit="10" stroke-width="1.5"/><line x2="47.347" y2="156.923" transform="translate(279.35 125.402)" fill="none" stroke="#00ac6f" stroke-miterlimit="10" stroke-width="1.5"/></g></g></svg>