<svg xmlns="http://www.w3.org/2000/svg" width="38.809" height="45.332" viewBox="0 0 38.809 45.332"><g transform="translate(0.75 1.055)"><g transform="translate(0)"><g transform="translate(0 0)"><path d="M26.427,16V41.909a5.124,5.124,0,0,1-5.034,5.182H5.034A5.124,5.124,0,0,1,0,41.909V16" transform="translate(0 -3.564)" fill="none" stroke="#a3a3a3" stroke-linecap="round" stroke-linejoin="round" stroke-width="1.5" fill-rule="evenodd"/><path d="M0,16H26.427" transform="translate(0 -3.564)" fill="none" stroke="#a3a3a3" stroke-linecap="round" stroke-linejoin="round" stroke-width="1.5" fill-rule="evenodd"/><path d="M6,22V41.432" transform="translate(-1.336 -4.9)" fill="none" stroke="#a3a3a3" stroke-linecap="round" stroke-linejoin="round" stroke-width="1.5" fill-rule="evenodd"/><path d="M34,21a10.882,10.882,0,0,1,0,21.763" transform="translate(-7.573 -4.677)" fill="none" stroke="#a3a3a3" stroke-linecap="round" stroke-linejoin="round" stroke-width="1.5" fill-rule="evenodd"/><path d="M34,26a7,7,0,0,1,0,13.991" transform="translate(-7.573 -5.791)" fill="none" stroke="#a3a3a3" stroke-linecap="round" stroke-linejoin="round" stroke-width="1.5" fill-rule="evenodd"/><path d="M7.858,10.1s-2.2-2.085.439-4.33S8.077,0,8.077,0" transform="translate(-1.559)" fill="none" stroke="#a3a3a3" stroke-linecap="round" stroke-linejoin="round" stroke-width="1.5" fill-rule="evenodd"/><path d="M13.524,10.1s-2.2-2.085.439-4.33S13.744,0,13.744,0" transform="translate(-2.821)" fill="none" stroke="#a3a3a3" stroke-linecap="round" stroke-linejoin="round" stroke-width="1.5" fill-rule="evenodd"/><path d="M19.191,10.1S17,8.02,19.63,5.774,19.41,0,19.41,0" transform="translate(-4.083)" fill="none" stroke="#a3a3a3" stroke-linecap="round" stroke-linejoin="round" stroke-width="1.5" fill-rule="evenodd"/><path d="M24.858,10.1s-2.2-2.085.439-4.33S25.077,0,25.077,0" transform="translate(-5.346)" fill="none" stroke="#a3a3a3" stroke-linecap="round" stroke-linejoin="round" stroke-width="1.5" fill-rule="evenodd"/></g></g></g></svg>