<svg xmlns="http://www.w3.org/2000/svg" width="46.581" height="46.581" viewBox="0 0 46.581 46.581"><g transform="translate(0.75 0.75)"><g transform="translate(0 0)"><g transform="translate(0 0)"><g transform="translate(0 0)"><path d="M30.5,34.028V28.893" transform="translate(-7.182 -6.824)" fill="none" stroke="#a3a3a3" stroke-width="1.5" fill-rule="evenodd"/><g transform="translate(0 0)"><path d="M14.491,29v5.048L4.4,37.8A5.88,5.88,0,0,0,.5,43.334v5.487H21.486" transform="translate(-0.5 -6.849)" fill="none" stroke="#a3a3a3" stroke-width="1.5" fill-rule="evenodd"/><path d="M31.418,12.26c0,6.495-4.387,11.76-9.8,11.76s-9.8-5.265-9.8-11.76S16.207.5,21.619.5,31.418,5.766,31.418,12.26Z" transform="translate(-3.021 -0.5)" fill="none" stroke="#a3a3a3" stroke-width="1.5" fill-rule="evenodd"/><path d="M31.4,13.225c-.33.04-.594,0-.927.061-3.338.643-5.482-.567-7.319-3.783-1.1,2.113-4.549,3.783-7.381,3.783a7.854,7.854,0,0,1-3.794-.915" transform="translate(-3.057 -2.506)" fill="none" stroke="#a3a3a3" stroke-width="1.5" fill-rule="evenodd"/><path d="M42.827,33.5l3.109,7h7l-5.88,4.592,2.771,7.844-7-4.664-7,4.664,3.38-7.844L33.5,40.5h7Z" transform="translate(-7.85 -7.851)" fill="none" stroke="#a3a3a3" stroke-linejoin="round" stroke-width="1.5" fill-rule="evenodd"/></g></g></g></g></g></svg>