<svg xmlns="http://www.w3.org/2000/svg" width="47.101" height="41.363" viewBox="0 0 47.101 41.363"><g transform="translate(0.75 0.75)"><g transform="translate(0 0)"><g transform="translate(0 0)"><g transform="translate(0 0)"><path d="M36.6,38.02a29.419,29.419,0,0,0,1.9-10.469H11.857a29.419,29.419,0,0,0,1.9,10.469" transform="translate(-2.641 -6.612)" fill="none" stroke="#a3a3a3" stroke-linecap="round" stroke-linejoin="round" stroke-width="1.5" fill-rule="evenodd"/><path d="M0,47H45.6" transform="translate(0 -10.944)" fill="none" stroke="#a3a3a3" stroke-linecap="round" stroke-linejoin="round" stroke-width="1.5" fill-rule="evenodd"/><path d="M0,51.9H45.6" transform="translate(0 -12.035)" fill="none" stroke="#a3a3a3" stroke-linecap="round" stroke-linejoin="round" stroke-width="1.5" fill-rule="evenodd"/><path d="M35.111,9.178A8.566,8.566,0,1,1,26.545.612,8.565,8.565,0,0,1,35.111,9.178Z" transform="translate(-4.005 -0.612)" fill="none" stroke="#a3a3a3" stroke-linecap="round" stroke-linejoin="round" stroke-width="1.5" fill-rule="evenodd"/><path d="M29.583,29.947h-2.4l-.767,8.4H30.35Z" transform="translate(-5.884 -7.146)" fill="none" stroke="#a3a3a3" stroke-linecap="round" stroke-linejoin="round" stroke-width="1.5" fill-rule="evenodd"/></g></g></g></g></svg>