<svg xmlns="http://www.w3.org/2000/svg" width="45.027" height="37.643" viewBox="0 0 45.027 37.643"><g transform="translate(0.75 0.75)"><g transform="translate(0 0)"><g transform="translate(0 0)"><path d="M0,12.436H7.773V0H0Z" transform="translate(43.138 12.436) rotate(180)" fill="none" stroke="#a3a3a3" stroke-linejoin="round" stroke-width="1.5" fill-rule="evenodd"/><path d="M0,4.664H29.536C29.536,1.723,22.608,0,14.768,0H4.664" transform="translate(35.366 6.218) rotate(180)" fill="none" stroke="#a3a3a3" stroke-linecap="round" stroke-linejoin="round" stroke-width="1.5" fill-rule="evenodd"/><path d="M0,0H4.664a12.914,12.914,0,0,1,10.1,4.664" transform="translate(35.366 10.882) rotate(180)" fill="none" stroke="#a3a3a3" stroke-linejoin="round" stroke-width="1.5" fill-rule="evenodd"/><path d="M.777,0a.777.777,0,1,0,.777.777A.777.777,0,0,0,.777,0" transform="translate(40.806 3.886) rotate(180)" fill="none" fill-rule="evenodd"/><path d="M0,47H43.527" transform="translate(0 -10.857)" fill="none" stroke="#a3a3a3" stroke-linecap="round" stroke-linejoin="round" stroke-width="1.5" fill-rule="evenodd"/><path d="M41.309,41.654A18.654,18.654,0,1,0,4,41.654" transform="translate(-0.891 -5.512)" fill="none" stroke="#a3a3a3" stroke-linecap="round" stroke-linejoin="round" stroke-width="1.5" fill-rule="evenodd"/><rect width="11.659" height="1.555" rx="0.777" transform="translate(15.934 13.991)" fill="none" stroke="#a3a3a3" stroke-width="1.5"/></g></g></g></svg>