<svg xmlns="http://www.w3.org/2000/svg" xmlns:xlink="http://www.w3.org/1999/xlink" width="324.681" height="289.556" viewBox="0 0 324.681 289.556"><defs><clipPath id="a"><rect width="43.567" height="78.137" transform="translate(0 0.226)" fill="#f9b58d" stroke="#707070" stroke-width="1"/></clipPath></defs><g transform="translate(-1216 -193.247)"><g transform="translate(1450.274 277.5) rotate(-90)" clip-path="url(#a)"><circle cx="35.694" cy="35.694" r="35.694" transform="translate(9.403 4.749)" fill="#f9b58d"/></g><path d="M15.14,1.452a1,1,0,0,1,1.721,0L31.105,25.49a1,1,0,0,1-.86,1.51H1.755a1,1,0,0,1-.86-1.51Z" transform="translate(1285 446) rotate(180)" fill="#f9b58d"/><rect width="29" height="29" rx="14.5" transform="translate(1216 324)" fill="#f9b58d"/><g transform="translate(978.342 -2.333)"><path d="M376.9,285.514c.68-7.912,8.68-7.474,9.223-3.191.619,4.874-3.828,4.8-3.828,4.8a103.729,103.729,0,0,1-11.4.1c-4.722-.213-1.8-9.48-1.8-9.48s6.074-32.707,40.482-28.83c25.5,2.873,34.528,31.677,19.727,53.671-3.905,5.8,1.39,16.117,1.373,17.229" transform="translate(-7.43 -3.332)" fill="none" stroke="#1a1818" stroke-miterlimit="10" stroke-width="1.5"/><path d="M312.462,315.278l-31.832-.1-1.284-86.016-.12-29.793a2.963,2.963,0,0,0-2.887-2.861h0a2.7,2.7,0,0,0-2.762,2.771l.381,14.617a2.489,2.489,0,0,1-2.677,2.778,2.79,2.79,0,0,1-2.822-2.866l-.375-14.412c-.082-3.227-2.74-3.064-2.74-3.064h0a2.7,2.7,0,0,0-2.763,2.77l.381,14.618a2.529,2.529,0,0,1-2.611,2.773h0a2.7,2.7,0,0,1-2.736-2.859l-.306-13.827a2.961,2.961,0,0,0-2.886-2.861h0a2.7,2.7,0,0,0-2.762,2.77l.6,143.295h60.2" transform="translate(0 0)" fill="none" stroke="#1a1818" stroke-miterlimit="10" stroke-width="1.5"/><path d="M375.393,290.251l-1.82,9.7,4.11,21.469-30.414-.1" transform="translate(-6.095 -5.987)" fill="none" stroke="#1a1818" stroke-miterlimit="10" stroke-width="1.5"/><path d="M505.6,329" transform="translate(-16.189 -8.458)" fill="none" stroke="#1a1818" stroke-miterlimit="10" stroke-width="1.5"/><path d="M441.716,334.683c.68-7.912,8.68-7.474,9.223-3.191.619,4.874-3.828,4.8-3.828,4.8a103.744,103.744,0,0,1-11.4.1c-4.721-.213-1.8-9.479-1.8-9.479s6.074-32.706,40.482-28.83c25.5,2.873,34.528,31.677,19.727,53.672-3.905,5.8-2.494,17.206-2.512,18.318,0,0,24.655.936,35.405,1.26,28.149.846,48.685,14.814,45.876,55.073l-.764,64.443H506.592l-47.749-98.306" transform="translate(-11.562 -6.467)" fill="none" stroke="#1a1818" stroke-miterlimit="10" stroke-width="1.5"/><path d="M434.114,333.433l-1.82,9.7L436.4,364.6l-90.958-.254-1.285-86.016-.12-29.792a2.962,2.962,0,0,0-2.887-2.861h0a2.7,2.7,0,0,0-2.762,2.77l.381,14.618a2.489,2.489,0,0,1-2.677,2.778,2.791,2.791,0,0,1-2.822-2.867l-.376-14.412c-.081-3.227-2.739-3.064-2.739-3.064h0a2.7,2.7,0,0,0-2.763,2.77l.381,14.618a2.529,2.529,0,0,1-2.611,2.773h0a2.7,2.7,0,0,1-2.736-2.859l-.306-13.827a2.962,2.962,0,0,0-2.886-2.861h0a2.7,2.7,0,0,0-2.762,2.77l.6,143.295h76.121l18.9,52.826" transform="translate(-4.132 -3.135)" fill="none" stroke="#1a1818" stroke-miterlimit="10" stroke-width="1.5"/></g></g></svg>