<svg xmlns="http://www.w3.org/2000/svg" width="43.472" height="43.861" viewBox="0 0 43.472 43.861"><g transform="translate(0.75 0.75)"><g transform="translate(0 0)"><path d="M32,41V54.991" transform="translate(-11.402 -12.63)" fill="none" stroke="#a3a3a3" stroke-linecap="round" stroke-linejoin="round" stroke-width="1.5" fill-rule="evenodd"/><path d="M24,59H36.436" transform="translate(-9.621 -16.639)" fill="none" stroke="#a3a3a3" stroke-linecap="round" stroke-linejoin="round" stroke-width="1.5" fill-rule="evenodd"/><g transform="translate(0 0)"><path d="M10.5,22.263V.5" transform="translate(-2.727 -0.5)" fill="none" stroke="#a3a3a3" stroke-linecap="round" stroke-linejoin="round" stroke-width="1.5" fill-rule="evenodd"/><path d="M42.5,22.263V.5" transform="translate(-9.855 -0.5)" fill="none" stroke="#a3a3a3" stroke-linecap="round" stroke-linejoin="round" stroke-width="1.5" fill-rule="evenodd"/><path d="M10.5,13.382H35.372V2.5H10.5Z" transform="translate(-2.727 -0.945)" fill="none" stroke="#a3a3a3" stroke-linecap="round" stroke-linejoin="round" stroke-width="1.5" fill-rule="evenodd"/><path d="M34.036,28.5H9.164L4.5,34.718H38.7Z" transform="translate(-1.391 -6.737)" fill="none" stroke="#a3a3a3" stroke-linecap="round" stroke-linejoin="round" stroke-width="1.5" fill-rule="evenodd"/><path d="M4.5,33.827V24.5" transform="translate(-1.391 -5.846)" fill="none" stroke="#a3a3a3" stroke-linecap="round" stroke-linejoin="round" stroke-width="1.5" fill-rule="evenodd"/><path d="M8.273,24.5H.5" transform="translate(-0.5 -5.846)" fill="none" stroke="#a3a3a3" stroke-linecap="round" stroke-linejoin="round" stroke-width="1.5" fill-rule="evenodd"/><path d="M48.5,33.827V24.5" transform="translate(-11.191 -5.846)" fill="none" stroke="#a3a3a3" stroke-linecap="round" stroke-linejoin="round" stroke-width="1.5" fill-rule="evenodd"/><path d="M42.5,24.5h9.327" transform="translate(-9.855 -5.846)" fill="none" stroke="#a3a3a3" stroke-linecap="round" stroke-linejoin="round" stroke-width="1.5" fill-rule="evenodd"/></g></g></g></svg>