<svg xmlns="http://www.w3.org/2000/svg" width="46.581" height="43.473" viewBox="0 0 46.581 43.473"><g transform="translate(0.75 0.75)"><g transform="translate(0 0)"><g transform="translate(0)"><g transform="translate(0 0)"><path d="M9.827,36.709H3.609A3.119,3.119,0,0,1,.5,33.6V19.609A3.119,3.119,0,0,1,3.609,16.5H42.472a3.119,3.119,0,0,1,3.109,3.109V33.6a3.119,3.119,0,0,1-3.109,3.109H36.254" transform="translate(-0.5 -4.064)" fill="none" stroke="#a3a3a3" stroke-linecap="round" stroke-linejoin="round" stroke-width="1.5" fill-rule="evenodd"/><path d="M12.5,9.827V.5H32.709l6.218,6.218V9.827" transform="translate(-3.173 -0.5)" fill="none" stroke="#a3a3a3" stroke-linecap="round" stroke-linejoin="round" stroke-width="1.5" fill-rule="evenodd"/><path d="M12.5,50.045H38.927V34.5H12.5Z" transform="translate(-3.173 -8.073)" fill="none" stroke="#a3a3a3" stroke-linecap="round" stroke-linejoin="round" stroke-width="1.5" fill-rule="evenodd"/><path d="M18.5,40.5H35.6" transform="translate(-4.509 -9.409)" fill="none" stroke="#a3a3a3" stroke-linecap="round" stroke-linejoin="round" stroke-width="1.5" fill-rule="evenodd"/><path d="M18.5,44.5H35.6" transform="translate(-4.509 -10.3)" fill="none" stroke="#a3a3a3" stroke-linecap="round" stroke-linejoin="round" stroke-width="1.5" fill-rule="evenodd"/><path d="M18.5,48.5H35.6" transform="translate(-4.509 -11.191)" fill="none" stroke="#a3a3a3" stroke-linecap="round" stroke-linejoin="round" stroke-width="1.5" fill-rule="evenodd"/><path d="M38.5.5V6.718h6.218" transform="translate(-8.964 -0.5)" fill="none" stroke="#a3a3a3" stroke-linecap="round" stroke-linejoin="round" stroke-width="1.5" fill-rule="evenodd"/><path d="M9.164,22.832A2.332,2.332,0,1,1,6.832,20.5,2.332,2.332,0,0,1,9.164,22.832Z" transform="translate(-1.391 -4.955)" fill="none" stroke="#a3a3a3" stroke-linecap="round" stroke-linejoin="round" stroke-width="1.5" fill-rule="evenodd"/></g></g></g></g></svg>