<svg xmlns="http://www.w3.org/2000/svg" width="45.027" height="45.026" viewBox="0 0 45.027 45.026"><g transform="translate(0.75 0.75)"><g transform="translate(0 0)"><g transform="translate(0)"><g transform="translate(0 0)"><path d="M34.076,12.307c-7.57,0-7.57-2.839-8.516-3.785-.946.946-.946,3.785-8.515,3.785" transform="translate(-3.797 -1.898)" fill="none" stroke="#a3a3a3" stroke-linecap="round" stroke-linejoin="round" stroke-width="1.5" fill-rule="evenodd"/><path d="M35.721,13.508l1.044-4.046S37.711,0,24.464,0s-12.3,9.463-12.3,9.463l.947,5.677c-1.893.946-.947,5.677,1.892,5.677,0,5.677,6.624,9.463,9.463,9.463a9.862,9.862,0,0,0,4.988-1.94" transform="translate(-2.701 0)" fill="none" stroke="#a3a3a3" stroke-linecap="round" stroke-linejoin="round" stroke-width="1.5" fill-rule="evenodd"/><path d="M16.843,36.461,4.912,39.829A7.57,7.57,0,0,0,0,46.917v4.731H43.527V46.917a7.57,7.57,0,0,0-4.913-7.088L26.751,36.461" transform="translate(0 -8.121)" fill="none" stroke="#a3a3a3" stroke-linecap="round" stroke-linejoin="round" stroke-width="1.5" fill-rule="evenodd"/><path d="M43.334,24.529v1.947c0,2.251-2.047,3-3.85,3H32.828" transform="translate(-7.312 -5.464)" fill="none" stroke="#a3a3a3" stroke-linecap="round" stroke-linejoin="round" stroke-width="1.5" fill-rule="evenodd"/><path d="M46.986,20.381a3.126,3.126,0,0,1-3,3h-1.5v-6h1.5a3.126,3.126,0,0,1,3,3Z" transform="translate(-9.463 -3.871)" fill="none" stroke="#a3a3a3" stroke-linecap="round" stroke-linejoin="round" stroke-width="1.5" fill-rule="evenodd"/><path d="M20.7,20.424c0-1.045.848-.946,1.892-.946s1.893-.1,1.893.946" transform="translate(-4.61 -4.338)" fill="none" stroke="#a3a3a3" stroke-linecap="round" stroke-linejoin="round" stroke-width="1.5" fill-rule="evenodd"/><path d="M30.435,20.424c0-1.045.847-.946,1.893-.946s1.893-.1,1.893.946" transform="translate(-6.779 -4.338)" fill="none" stroke="#a3a3a3" stroke-linecap="round" stroke-linejoin="round" stroke-width="1.5" fill-rule="evenodd"/><path d="M31.322,30.681a.751.751,0,0,1-.75.75H26.819a.75.75,0,0,1,0-1.5h3.752a.751.751,0,0,1,.75.75Z" transform="translate(-5.807 -6.667)" fill="none" stroke="#a3a3a3" stroke-linecap="round" stroke-linejoin="round" stroke-width="1.5" fill-rule="evenodd"/></g></g></g></g></svg>