<svg xmlns="http://www.w3.org/2000/svg" width="240.71" height="213.5" viewBox="0 0 240.71 213.5">
  <g id="Group_1468" data-name="Group 1468" transform="translate(-1004.066 -845.25)">
    <g id="Group_879" data-name="Group 879" transform="translate(1004.973 846)">
      <path id="Path_51" data-name="Path 51" d="M4140.147,326.881" transform="translate(-3998.852 -220.645)" fill="none" stroke="#ac92c3" stroke-miterlimit="10" stroke-width="1.5"/>
      <path id="Path_52" data-name="Path 52" d="M4249.568,249.571v23.148h16.77V233.236l-66.446-.291c0,19.246.7,37.415,1.271,48.455,1.868,35.921,34.019,26.856,34.019,26.856l-.7-58.861Z" transform="translate(-4027.284 -175.941)" fill="none" stroke="#ac92c3" stroke-miterlimit="10" stroke-width="1.5"/>
      <path id="Path_53" data-name="Path 53" d="M3969.068,334.958l-18.546.385a1.735,1.735,0,0,1-1.78-1.775h0a1.9,1.9,0,0,1,1.837-1.855l8.886-.2a1.733,1.733,0,0,0,1.836-1.758h0a1.625,1.625,0,0,0-1.782-1.678l-9.393.244a1.735,1.735,0,0,1-1.78-1.774h0s-.105-1.709,1.969-1.761l9.26-.242a1.794,1.794,0,0,0,1.843-1.813,1.6,1.6,0,0,0-1.787-1.719l-9.392.244a1.737,1.737,0,0,1-1.781-1.775h0a1.9,1.9,0,0,1,1.838-1.855l19.145-.077" transform="translate(-3907.576 -216.411)" fill="none" stroke="#ac92c3" stroke-miterlimit="10" stroke-width="1.5"/>
      <path id="Path_54" data-name="Path 54" d="M4294.3,308.22l-.371,17.889a1.673,1.673,0,0,0,1.712,1.717h0a1.836,1.836,0,0,0,1.789-1.773l.188-8.571a1.674,1.674,0,0,1,1.7-1.772h0a1.566,1.566,0,0,1,1.617,1.718l-.234,9.06a1.674,1.674,0,0,0,1.711,1.717h0s1.648.1,1.7-1.9l.233-8.932a1.73,1.73,0,0,1,1.749-1.776,1.543,1.543,0,0,1,1.66,1.722l-.238,9.059a1.676,1.676,0,0,0,1.713,1.717h0a1.836,1.836,0,0,0,1.789-1.774l.076-18.465" transform="translate(-4072.036 -211.592)" fill="none" stroke="#ac92c3" stroke-miterlimit="10" stroke-width="1.5"/>
      <path id="Path_55" data-name="Path 55" d="M3890.474,223.1h-11.182l-8.734,45.772s134.171.181,133.124.181l-8.038-25.687-63.881-.254v17.434l41.812.291V222.4c.735-24.059,21.856-22.284,21.856-22.284l23.449.183-4.7-13.4.427-6.8c.368-4.224,4.18-3.72,4.5-1.561.368,2.48-1.623,2.54-1.623,2.54h-3.674c-4.652.061-4.1-3.305-4.1-3.305l.552-2.877c2.937-12.978,13.487-15.349,21.3-12,9.428,4.04,9.913,13.633,7.1,22.773l4.5,13.287" transform="translate(-3870.557 -141.958)" fill="none" stroke="#ac92c3" stroke-miterlimit="10" stroke-width="1.5"/>
      <line id="Line_18" data-name="Line 18" x2="6.988" y2="49.965" transform="translate(16.422 54.587)" fill="none" stroke="#ac92c3" stroke-miterlimit="10" stroke-width="1.5"/>
      <path id="Path_56" data-name="Path 56" d="M3991.382,366.678l-22.712,56.953h20.616l-11.879,27.952h23.06l24.109-58h51.013s24.459,1.747,25.506-21.313v-4.723" transform="translate(-3917.248 -239.584)" fill="none" stroke="#ac92c3" stroke-miterlimit="10" stroke-width="1.5"/>
      <ellipse id="Ellipse_12" data-name="Ellipse 12" cx="24.458" cy="24.458" rx="24.458" ry="24.458" transform="translate(184.312)" fill="none" stroke="#ac92c3" stroke-miterlimit="10" stroke-width="1.5"/>
      <g id="Group_13" data-name="Group 13" transform="translate(194.096 17.121)">
        <path id="Path_57" data-name="Path 57" d="M4240.892,161.916a5.066,5.066,0,1,1,10.132,0" transform="translate(-4240.892 -156.849)" fill="none" stroke="#ac92c3" stroke-miterlimit="10" stroke-width="1.5"/>
        <path id="Path_58" data-name="Path 58" d="M4260.224,161.916a5.067,5.067,0,0,1,10.133,0" transform="translate(-4250.091 -156.849)" fill="none" stroke="#ac92c3" stroke-miterlimit="10" stroke-width="1.5"/>
      </g>
      <g id="Group_14" data-name="Group 14" transform="translate(213.313 28.032)">
        <path id="Path_59" data-name="Path 59" d="M4277.559,180.986a3.319,3.319,0,1,1,6.637,0" transform="translate(-4277.559 -177.667)" fill="none" stroke="#ac92c3" stroke-miterlimit="10" stroke-width="1.5"/>
        <path id="Path_60" data-name="Path 60" d="M4290.225,180.986a3.319,3.319,0,0,1,6.639,0" transform="translate(-4283.586 -177.667)" fill="none" stroke="#ac92c3" stroke-miterlimit="10" stroke-width="1.5"/>
      </g>
    </g>
  </g>
</svg>
