<svg id="Group_1232" data-name="Group 1232" xmlns="http://www.w3.org/2000/svg" width="53.69" height="55.301" viewBox="0 0 53.69 55.301">
  <path id="Path_4141" data-name="Path 4141" d="M-233.234,518.149l-2.464-2.6a7.136,7.136,0,0,0-10.284-.074l-19.465,19.942a8.033,8.033,0,0,0,.068,11.291l5.082,5.082h0c-1.047-3.615,1.041-6.864,4-10.172,2.16-2.412,4.787-4.964,7-7.184Z" transform="translate(267.731 -513.326)" fill="#90bd28"/>
  <path id="Path_4142" data-name="Path 4142" d="M-190.138,615.03l2.464,2.6a7.135,7.135,0,0,0,10.284.074l19.465-19.942a8.033,8.033,0,0,0-.069-11.291l-5.082-5.081h0c1.047,3.615-1.041,6.864-4,10.172-2.16,2.412-4.787,4.964-7,7.184Z" transform="translate(209.331 -564.552)" fill="#90bd28"/>
  <path id="Path_4143" data-name="Path 4143" d="M-234.018,583.931s-.082,4.51,3.208,6.375a7.751,7.751,0,0,0,10.09-1.645c3.071-3.29,20.4-20.838,20.4-20.838s1.467-1.453,2.961-.877c0,0,1.1-3.041-2.975-6.169-4.236-3.249-8.349-.165-10.405,1.892s-18.1,18.755-18.1,18.755S-231.6,584.644-234.018,583.931Z" transform="translate(242.357 -547.973)" fill="#cbda79"/>
</svg>
