<svg xmlns="http://www.w3.org/2000/svg" width="46.582" height="46.581" viewBox="0 0 46.582 46.581"><g transform="translate(0.75 0.75)"><g transform="translate(0 0)"><g transform="translate(0)"><g transform="translate(0 0)"><path d="M12.936,35.818H.5V18.853C.5,15.606,2.693,12.5,5.941,12.5c4.664,0,6.319,3.106,7,6.353Z" transform="translate(-0.5 -3.173)" fill="none" stroke="#a3a3a3" stroke-linecap="round" stroke-linejoin="round" stroke-width="1.5" fill-rule="evenodd"/><path d="M8.065,12.5H41.386a6.653,6.653,0,0,1,5.881,6.353V35.818H13.945" transform="translate(-2.185 -3.173)" fill="none" stroke="#a3a3a3" stroke-linecap="round" stroke-linejoin="round" stroke-width="1.5" fill-rule="evenodd"/><path d="M32.5,42.5V54.936" transform="translate(-7.628 -9.855)" fill="none" stroke="#a3a3a3" stroke-linecap="round" stroke-linejoin="round" stroke-width="1.5" fill-rule="evenodd"/><path d="M5.543,38.5h3.92" transform="translate(-1.623 -8.964)" fill="none" stroke="#a3a3a3" stroke-linecap="round" stroke-linejoin="round" stroke-width="1.5" fill-rule="evenodd"/><path d="M10.5,10.941V5.5" transform="translate(-2.727 -1.614)" fill="none" stroke="#a3a3a3" stroke-linecap="round" stroke-linejoin="round" stroke-width="1.5" fill-rule="evenodd"/><path d="M10.5,6.718h6.218V.5H10.5Z" transform="translate(-2.727 -0.5)" fill="none" stroke="#a3a3a3" stroke-linecap="round" stroke-linejoin="round" stroke-width="1.5" fill-rule="evenodd"/></g></g></g></g></svg>