<svg xmlns="http://www.w3.org/2000/svg" width="44.911" height="44.942" viewBox="0 0 44.911 44.942"><g transform="translate(0.75 0.75)"><g transform="translate(0 0)"><path d="M12.367,44.048H32.1a.734.734,0,0,1,.617.334L34.19,46.7a1.726,1.726,0,0,0,1.178.772,1.772,1.772,0,0,0,1.377-.348l3.572-2.8a1.3,1.3,0,0,1,.8-.275h1.631a4.647,4.647,0,0,0,4.718-4.562V15.056a4.6,4.6,0,0,0-3.592-4.43V8.617a4.647,4.647,0,0,0-4.718-4.562H8.775A4.647,4.647,0,0,0,4.056,8.617V33.046a5.155,5.155,0,0,0,3.593,4.9" transform="translate(-4.056 -4.055)" fill="none" stroke="#a3a3a3" stroke-linecap="round" stroke-linejoin="round" stroke-width="1.5" fill-rule="evenodd"/><path d="M8.679,46.119h2.756c.291,0,.576-.177.8,0l3.572,2.742a1.76,1.76,0,0,0,1.086.372,1.791,1.791,0,0,0,.291-.024,1.726,1.726,0,0,0,1.178-.772l1.47-2.319c.131-.206.367,0,.617,0H40.186a4.937,4.937,0,0,0,4.718-4.9v-.454" transform="translate(-5.086 -12.232)" fill="none" stroke="#a3a3a3" stroke-linecap="round" stroke-linejoin="round" stroke-width="1.5" fill-rule="evenodd"/><path d="M34.511,28.33c-.023-.033-.047-.065-.071-.1l-.013-.017q-.043-.055-.089-.108l-3.676-4.236a2.776,2.776,0,0,0-.751-.609,2.821,2.821,0,0,0-.369-.171q-.063-.024-.128-.045a2.888,2.888,0,0,0-2.712.491l-2.3,1.862a.168.168,0,0,1-.119.036.162.162,0,0,1-.111-.056l-6.021-6.938a.155.155,0,0,1,.02-.222l2.3-1.862a2.677,2.677,0,0,0,1-2.106,2.64,2.64,0,0,0-.375-1.333,2.719,2.719,0,0,0-.282-.391l-1.134-1.306L17.14,8.293a2.824,2.824,0,0,0-1.908-.961h0a2.852,2.852,0,0,0-2.048.626l-.991.8,0,0-2.1,1.7a4.594,4.594,0,0,0-1.476,5.1c.022.064.046.127.071.19l.26.647q.636,1.583,1.418,3.1a36.536,36.536,0,0,0,4.887,7.208,37.567,37.567,0,0,0,9.4,7.793l.614.36a4.987,4.987,0,0,0,5.637-.418l2.1-1.7.995-.807q.055-.045.107-.092l.014-.013c.03-.027.06-.055.089-.084l0,0a2.658,2.658,0,0,0,.781-1.654,2.629,2.629,0,0,0-.471-1.758Z" transform="translate(-5.013 -4.782)" fill="none" stroke="#a3a3a3" stroke-linecap="round" stroke-linejoin="round" stroke-width="1.5" fill-rule="evenodd"/><path d="M46.128,14.941a3.921,3.921,0,0,0,1.024-1.816,3.821,3.821,0,0,0,.032-1.7,4.129,4.129,0,0,0-8.038,0,3.819,3.819,0,0,0,.032,1.7A3.921,3.921,0,0,0,40.2,14.941a4.378,4.378,0,0,0-1.633,3.394V20.85a1.445,1.445,0,0,0,1.467,1.418h6.26a1.445,1.445,0,0,0,1.467-1.418V18.334A4.378,4.378,0,0,0,46.128,14.941Z" transform="translate(-11.743 -4.988)" fill="none" stroke="#a3a3a3" stroke-linecap="round" stroke-linejoin="round" stroke-width="1.5" fill-rule="evenodd"/></g></g></svg>