<svg xmlns="http://www.w3.org/2000/svg" xmlns:xlink="http://www.w3.org/1999/xlink" width="472.6" height="290.277" viewBox="0 0 472.6 290.277"><defs><clipPath id="a"><rect width="43.567" height="78.137" transform="translate(0 0.226)" fill="#a7c2e4" stroke="#707070" stroke-width="1"/></clipPath><clipPath id="b"><rect width="32.815" height="58.852" transform="translate(0 0.226)" fill="#a7c2e4" stroke="#707070" stroke-width="1"/></clipPath></defs><g transform="translate(-1129 -188.648)"><g transform="translate(1314.352 267.011) rotate(180)" clip-path="url(#a)"><circle cx="35.694" cy="35.694" r="35.694" transform="translate(9.403 4.749)" fill="#a7c2e4"/></g><g transform="translate(1601.6 394.011) rotate(180)" clip-path="url(#b)"><circle cx="26.885" cy="26.885" r="26.885" transform="translate(7.082 3.632)" fill="#a7c2e4"/></g><path d="M15.69,7.326a5,5,0,0,1,8.619,0L35.568,26.465A5,5,0,0,1,31.258,34H8.742a5,5,0,0,1-4.31-7.535Z" transform="translate(1163 386) rotate(90)" fill="#a7c2e4"/><rect width="29" height="29" rx="14.5" transform="translate(1341 299)" fill="#a7c2e4"/><g transform="translate(1221 204)"><path d="M3339.469,304.177a34.087,34.087,0,0,0-68.174,0c0,.093.006.184.007.277a56.906,56.906,0,0,0-52.786,12.965,74.039,74.039,0,0,0-60.381-15.342,34.1,34.1,0,0,0-30.362-23.349,34.458,34.458,0,0,0,.234-3.943,34.086,34.086,0,1,0-58.062,24.225,49.706,49.706,0,0,0,29.274,89.874,73.965,73.965,0,0,0,136.41,23.271,56.851,56.851,0,0,0,73.828-74.142A34.087,34.087,0,0,0,3339.469,304.177Z" transform="translate(-3014.389 -174.539)" fill="none" stroke="#030303" stroke-miterlimit="10" stroke-width="1.5"/><path d="M3019.154,485.38a19.756,19.756,0,0,0,15.965-4.637,25.347,25.347,0,0,0,11.893,5.024c13.366,1.949,25.7-6.748,27.551-19.428s-7.486-24.539-20.854-26.488a24.532,24.532,0,0,0-24.2,10.545,20.425,20.425,0,0,0-5.047-1.418c-10.6-1.545-20.376,5.35-21.844,15.4S3008.558,483.834,3019.154,485.38Z" transform="translate(-3002.436 -225.029)" fill="none" stroke="#030303" stroke-miterlimit="10" stroke-width="1.5"/><path d="M3441.622,152.928a17.052,17.052,0,0,0-13.827,3.837,21.872,21.872,0,0,0-10.213-4.46c-11.515-1.822-22.252,5.557-23.981,16.481s6.208,21.257,17.725,23.078a21.177,21.177,0,0,0,20.994-8.85,17.545,17.545,0,0,0,4.341,1.276c9.132,1.445,17.644-4.405,19.014-13.066S3450.752,154.372,3441.622,152.928Z" transform="translate(-3101.683 -152.028)" fill="none" stroke="#030303" stroke-miterlimit="10" stroke-width="1.5"/><path d="M3207.541,209.8l1.088,5.8-2.072,20.961,83.379,52.015,44.088-44.7,49.6,26.33,14.083-21.432s12.247,31.433-17.961,42.047" transform="translate(-3054.257 -166.695)" fill="none" stroke="#030303" stroke-miterlimit="10" stroke-width="1.5"/><path d="M3261.474,246.046l21.878.087a2.177,2.177,0,0,1,2.1,2.121h0a1.984,1.984,0,0,1-2.036,2.028L3272.685,250a1.828,1.828,0,0,0-2.04,1.965,2.049,2.049,0,0,0,2.1,2.072l10.584.276c2.37.06,2.25,2.012,2.25,2.012h0a1.983,1.983,0,0,1-2.034,2.029l-10.734-.28a1.859,1.859,0,0,0-2.038,1.918h0a1.982,1.982,0,0,0,2.1,2.009l10.155.225a2.177,2.177,0,0,1,2.1,2.12h0a1.984,1.984,0,0,1-2.034,2.029l-21.2-.44s-32.761-.751-56.184-.751c-7.363,0-11.764.042-13.777,3.061-3.673,5.511,1.377,10.257,4.542,9.339,5.2-1.511,5.306-7.349,5.306-7.349.256-7.807.8-7.07.1-12.247-4.157-30.851-36.491-28.862-36.491-28.862-.01-.664,1.243-14.826-1.092-18.295-8.846-13.145-3.451-30.359,11.79-32.077,20.563-2.317,24.192,17.229,24.192,17.229s1.75,5.539-1.073,5.665a61.86,61.86,0,0,1-6.813-.059,2.288,2.288,0,0,1-2.287-2.871c.324-2.559,5.107-2.821,5.512,1.907" transform="translate(-3042.449 -158.765)" fill="none" stroke="#030303" stroke-miterlimit="10" stroke-width="1.5"/><path d="M3334.173,251.588l15.92-17.962v-44.9" transform="translate(-3086.655 -161.343)" fill="none" stroke="#030303" stroke-miterlimit="10" stroke-width="1.5"/></g></g></svg>