<svg xmlns="http://www.w3.org/2000/svg" width="50.371" height="55.961" viewBox="0 0 50.371 55.961"><path d="M1373.645,327.389a42.47,42.47,0,0,0-3.039,10.794,46.352,46.352,0,0,0,1.2,19.778,24.536,24.536,0,0,0,6.591,11.989,12.181,12.181,0,0,0,8.54,3.43c.1,0,.205,0,.307,0a13.115,13.115,0,0,0,8.98-3.9,12.776,12.776,0,0,0,.475-17.825A22.477,22.477,0,0,0,1385.3,345.4a22.477,22.477,0,0,0,11.392-6.254,12.776,12.776,0,0,0-.475-17.825,13.114,13.114,0,0,0-8.98-3.9,12.194,12.194,0,0,0-8.847,3.426A23.324,23.324,0,0,0,1373.645,327.389Z" transform="translate(-1349.717 -317.419)" fill="#fb3449"/><circle cx="8.229" cy="8.229" r="8.229" transform="translate(0 19.752)" fill="#fb3449"/></svg>