<?xml version="1.0" encoding="utf-8"?>
<!-- Generator: Adobe Illustrator 19.0.0, SVG Export Plug-In . SVG Version: 6.00 Build 0)  -->
<svg version="1.1" id="Layer_1" xmlns="http://www.w3.org/2000/svg" xmlns:xlink="http://www.w3.org/1999/xlink" x="0px" y="0px"
	 viewBox="0 0 15 15" style="enable-background:new 0 0 15 15;" xml:space="preserve">
<path id="Jb1UVV.tif" transform="translate(-1143.389 -706.722)" class="st0" d="M1143.4,710c0.7-1,1.4-1.9,2.2-2.8
	c0.1-0.1,0.3-0.3,0.4-0.4c0.2-0.1,0.2-0.1,0.3,0c0.2,0.3,0.4,0.6,0.6,0.9c0.5,0.8,1,1.7,1.5,2.6c0.2,0.3,0.1,0.3-0.1,0.5
	c-0.3,0.3-0.7,0.6-1,0.9c-0.4,0.4-0.5,0.4-0.3,1c0.7,2.1,2,3.9,3.9,5c0.5,0.3,1.1,0.5,1.8,0.6c0.2,0,0.5-0.1,0.7-0.2
	c0.3-0.3,0.6-0.6,0.9-0.9c0,0,0.1-0.1,0.2-0.1c0.1-0.1,0.3-0.1,0.5,0c0.6,0.4,1.2,0.7,1.8,1.1c0.4,0.3,0.9,0.6,1.3,0.9
	c0.4,0.3,0.4,0.3,0,0.6c-0.9,0.8-1.9,1.6-3,2.2h-0.6c0,0-0.1,0-0.1,0c-0.7-0.1-1.4-0.3-2.1-0.6c-1.2-0.6-2.3-1.3-3.2-2.1
	c-1.6-1.4-3-2.9-4.1-4.7c-0.6-1-1.1-2.1-1.4-3.2c-0.1-0.2-0.1-0.5-0.2-0.8V710z M1158.3,713.9l-1.3,0.2c0-3.3-2.6-6.1-5.9-6.1
	c0,0-0.1,0-0.1,0l0.2-1.3C1155.1,706.8,1158.3,710,1158.3,713.9z M1153.9,714.6c0.3-1.5-0.7-3-2.3-3.3c-0.3-0.1-0.7-0.1-1,0l0.2-1.3
	c2.2-0.2,4.2,1.4,4.4,3.6c0,0.3,0,0.5,0,0.8L1153.9,714.6z"/>
</svg>
