<?xml version="1.0" encoding="utf-8"?>
<!-- Generator: Adobe Illustrator 19.0.0, SVG Export Plug-In . SVG Version: 6.00 Build 0)  -->
<svg version="1.1" id="Layer_1" xmlns="http://www.w3.org/2000/svg" xmlns:xlink="http://www.w3.org/1999/xlink" x="0px" y="0px"
	 viewBox="-1.8 -1.9 19.7 19.7" style="enable-background:new -1.8 -1.9 19.7 19.7;" xml:space="preserve">
<style type="text/css">
	.st0{fill:#00AC6F;}
	.st1{fill:#FCFCFC;}
</style>
<circle class="st0" cx="8" cy="7.9" r="9.9"/>
<path id="Jb1UVV.tif" class="st1" d="M2.9,5.2c0.5-0.7,1-1.3,1.5-2C4.5,3.1,4.7,3,4.8,2.9c0.1-0.1,0.1-0.1,0.2,0
	c0.1,0.2,0.3,0.4,0.4,0.6c0.4,0.6,0.7,1.2,1.1,1.8c0.1,0.2,0.1,0.2-0.1,0.4C6.2,5.9,5.9,6.1,5.7,6.4C5.4,6.6,5.3,6.6,5.5,7.1
	C6,8.5,6.9,9.8,8.2,10.6C8.6,10.8,9,10.9,9.5,11c0.1,0,0.4-0.1,0.5-0.1c0.2-0.2,0.4-0.4,0.6-0.6c0,0,0.1-0.1,0.1-0.1
	c0.1-0.1,0.2-0.1,0.4,0c0.4,0.3,0.8,0.5,1.3,0.8c0.3,0.2,0.6,0.4,0.9,0.6c0.3,0.2,0.3,0.2,0,0.4c-0.6,0.6-1.3,1.1-2.1,1.5h-0.4h-0.1
	c-0.5-0.1-1-0.2-1.5-0.4c-0.8-0.4-1.6-0.9-2.3-1.5c-1.1-1-2.1-2-2.9-3.3c-0.4-0.7-0.8-1.5-1-2.3C3,5.9,3,5.7,2.9,5.5L2.9,5.2
	L2.9,5.2z M13.4,7.9L12.5,8c0-2.3-1.8-4.3-4.2-4.3H8.3l0.1-0.9C11.2,2.9,13.4,5.2,13.4,7.9z M10.3,8.4c0.2-1.1-0.5-2.1-1.6-2.3
	C8.5,6,8.2,6,8,6.1l0.1-0.9c1.5-0.1,3,1,3.1,2.5c0,0.2,0,0.4,0,0.6L10.3,8.4z"/>
</svg>
