<svg xmlns="http://www.w3.org/2000/svg" width="30.278" height="30.278" viewBox="0 0 30.278 30.278"><g transform="translate(-64 -771)"><g transform="translate(64 771)"><ellipse cx="15.139" cy="15.139" rx="15.139" ry="15.139" transform="translate(0 0)" fill="#ee3a4e"/><g transform="translate(8.027 8.298)"><path d="M2182.754-152.224c.92.06,1.9.113,2.881.195a11.528,11.528,0,0,1,1.355.2,1.323,1.323,0,0,1,1.075,1.092,14.953,14.953,0,0,1,.356,3.786,15.236,15.236,0,0,1-.345,2.782,1.377,1.377,0,0,1-1.249,1.173c-.768.1-1.539.177-2.309.261-.189.021-.38.036-.57.043a.178.178,0,0,0-.167.107q-.5.866-1,1.728a.482.482,0,0,1-.378.285.461.461,0,0,1-.463-.272c-.328-.569-.658-1.137-.984-1.708a.244.244,0,0,0-.222-.144c-.667-.049-1.334-.1-2-.173a9.578,9.578,0,0,1-1-.159,1.326,1.326,0,0,1-1.069-1.066,12.446,12.446,0,0,1-.337-2.4c-.021-.512-.036-1.026-.022-1.539a13.269,13.269,0,0,1,.24-2.157,6.717,6.717,0,0,1,.153-.693,1.327,1.327,0,0,1,1.18-.977c.742-.1,1.486-.2,2.232-.254C2180.968-152.173,2181.829-152.186,2182.754-152.224Z" transform="translate(-2176.3 154.25)" fill="#fff"/><path d="M2237.007-182.931c.013-.117.022-.212.034-.307a16.123,16.123,0,0,0,.1-2.729,17.577,17.577,0,0,0-.238-2.119,3.864,3.864,0,0,0-.492-1.51,2.4,2.4,0,0,0-1.624-1.061,18.424,18.424,0,0,0-2.853-.308c-.991-.035-1.984-.061-2.975-.042-.791.016-1.581.106-2.371.162a.488.488,0,0,1-.062,0,1.2,1.2,0,0,1,.473-.587,1.894,1.894,0,0,1,.823-.277,29.619,29.619,0,0,1,5.682-.276,20.131,20.131,0,0,1,3.256.346,1.311,1.311,0,0,1,1.064,1.07,14.841,14.841,0,0,1,.358,3.924,14.5,14.5,0,0,1-.356,2.729,1.327,1.327,0,0,1-.677.923C2237.111-182.975,2237.068-182.958,2237.007-182.931Z" transform="translate(-2223.97 192.017)" fill="#fff"/></g></g></g></svg>