<svg xmlns="http://www.w3.org/2000/svg" width="189.503" height="93.371" viewBox="0 0 189.503 93.371">
  <g id="Group_947" data-name="Group 947" transform="translate(-756.377 -1268.813)">
    <path id="Path_34" data-name="Path 34" d="M1208.513,171.527c-14.641,31.893,7.25,28.723,7.25,28.723l5.016-22.5,12.581-.111V162.6h-6.387v8.694h-15.406l-2.975.036,2.541-6.947-.163-2.588c-.14-1.609-1.592-1.417-1.714-.595-.14.944.618.968.618.968h1.4c1.772.023,1.562-1.259,1.562-1.259l-.21-1.1c-1.119-4.943-5.136-5.845-8.113-4.569-3.59,1.539-3.775,5.192-2.7,8.673a10.587,10.587,0,0,1,.186,4.1l-5.464-.036s-8.043-.676-8.323,8.486v15.1l-15.923-.111v-6.639l19.826.266" transform="translate(-364.831 1116.255)" fill="none" stroke="#030303" stroke-miterlimit="10" stroke-width="1"/>
    <path id="Path_35" data-name="Path 35" d="M1272.8,302.291" transform="translate(-435.994 1004.282)" fill="none" stroke="#030303" stroke-miterlimit="10" stroke-width="1"/>
    <path id="Path_36" data-name="Path 36" d="M1383.568,361.635" transform="translate(-510.844 959.253)" fill="none" stroke="#030303" stroke-miterlimit="10" stroke-width="1"/>
    <path id="Path_37" data-name="Path 37" d="M1170.563,210.548l-11.71,30.073h-19.294l-8.649,21.69h7.851l-4.524,10.645h8.782l9.181-22.089h19.427s9.314.665,9.714-8.117" transform="translate(-333.437 1073.896)" fill="none" stroke="#030303" stroke-miterlimit="10" stroke-width="1"/>
    <path id="Path_38" data-name="Path 38" d="M1147.74,286.3l-6.909.143a.647.647,0,0,1-.663-.661h0a.709.709,0,0,1,.685-.691l3.31-.073a.646.646,0,0,0,.684-.655h0a.605.605,0,0,0-.664-.625l-3.5.091a.647.647,0,0,1-.663-.661h0s-.039-.637.734-.656l3.45-.09a.668.668,0,0,0,.686-.675.6.6,0,0,0-.665-.641l-3.5.091a.647.647,0,0,1-.663-.661h0a.709.709,0,0,1,.685-.691l7.132-.028" transform="translate(-340.35 1021.338)" fill="none" stroke="#030303" stroke-miterlimit="10" stroke-width="1"/>
    <path id="Path_39" data-name="Path 39" d="M1398.541,163.323l-.141-6.909a.641.641,0,0,1,.649-.663h0a.7.7,0,0,1,.679.685l.072,3.31a.638.638,0,0,0,.643.684h0a.6.6,0,0,0,.614-.664l-.09-3.5a.641.641,0,0,1,.649-.663h0s.625-.039.644.734l.088,3.45a.662.662,0,0,0,.663.686.589.589,0,0,0,.629-.665l-.089-3.5a.641.641,0,0,1,.649-.663h0a.7.7,0,0,1,.678.685l.028,7.132" transform="translate(-536.378 1115.588)" fill="none" stroke="#030303" stroke-miterlimit="10" stroke-width="1"/>
    <g id="Group_10" data-name="Group 10" transform="translate(832.518 1323.545)">
      <line id="Line_8" data-name="Line 8" y1="14.275" x2="55.371" transform="translate(0)" fill="none" stroke="#030303" stroke-miterlimit="10" stroke-width="1"/>
      <line id="Line_9" data-name="Line 9" x1="0.451" y1="25.797" transform="translate(6.833 12.834)" fill="none" stroke="#030303" stroke-miterlimit="10" stroke-width="1"/>
      <line id="Line_10" data-name="Line 10" x2="10.575" y2="22.936" transform="translate(48.56 2.077)" fill="none" stroke="#030303" stroke-miterlimit="10" stroke-width="1"/>
    </g>
    <g id="Group_11" data-name="Group 11" transform="translate(886.42 1286.724)">
      <line id="Line_11" data-name="Line 11" x2="56.533" y2="8.585" transform="translate(2.852)" fill="none" stroke="#030303" stroke-miterlimit="10" stroke-width="1"/>
      <line id="Line_12" data-name="Line 12" y1="23.907" x2="9.703" transform="translate(0 1.355)" fill="none" stroke="#030303" stroke-miterlimit="10" stroke-width="1"/>
      <line id="Line_13" data-name="Line 13" x2="0.733" y2="25.245" transform="translate(52.306 7.824)" fill="none" stroke="#030303" stroke-miterlimit="10" stroke-width="1"/>
    </g>
    <g id="Group_12" data-name="Group 12" transform="translate(756.789 1269.098)">
      <line id="Line_14" data-name="Line 14" y1="47.078" x2="32.456" transform="translate(0 0)" fill="none" stroke="#030303" stroke-miterlimit="10" stroke-width="1"/>
      <line id="Line_15" data-name="Line 15" x1="17.251" y1="19.185" transform="translate(4.216 41.51)" fill="none" stroke="#030303" stroke-miterlimit="10" stroke-width="1"/>
      <line id="Line_16" data-name="Line 16" x2="23.021" y2="10.388" transform="translate(28.674 6.033)" fill="none" stroke="#030303" stroke-miterlimit="10" stroke-width="1"/>
    </g>
  </g>
</svg>
