<svg xmlns="http://www.w3.org/2000/svg" width="102.494" height="89.55" viewBox="0 0 102.494 89.55">
  <g id="Group_877" data-name="Group 877" transform="translate(0.484 0.503)">
    <path id="Path_40" data-name="Path 40" d="M2173.351,155.9c.171-1.995,2.188-1.884,2.325-.8a.965.965,0,0,1-.965,1.211,26.161,26.161,0,0,1-2.874.025c-1.19-.054-.453-2.39-.453-2.39s1.531-8.245,10.206-7.268c6.429.724,8.7,7.986,4.973,13.53-.985,1.463-.629,4.338-.634,4.618,0,0,15.4-2.99,14.773,20.973h23.962" transform="translate(-2130.399 -146.598)" fill="none" stroke="#030303" stroke-miterlimit="10" stroke-width="1"/>
    <path id="Path_41" data-name="Path 41" d="M2052.576,188.251l-.458,2.446,1.036,5.412-4.063-.064s-14.563-.86-14.022,18.21l-.047,3.013h-21.893" transform="translate(-2009.669 -178.42)" fill="none" stroke="#030303" stroke-miterlimit="10" stroke-width="1"/>
    <path id="Path_42" data-name="Path 42" d="M2143.642,286.058l35.092,43.32,7.567-4.729-2.522-4.414,5.36-3.784-18.805-46.3-7.511.03a.747.747,0,0,0-.722.728h0a.681.681,0,0,0,.7.7l3.685-.1a.627.627,0,0,1,.7.675.7.7,0,0,1-.722.711l-3.633.095c-.814.021-.773.691-.773.691h0a.681.681,0,0,0,.7.7l3.685-.1a.638.638,0,0,1,.7.658h0a.68.68,0,0,1-.721.69l-3.486.077a.747.747,0,0,0-.721.728h0a.681.681,0,0,0,.7.7l7.276-.151" transform="translate(-2109.378 -240.989)" fill="none" stroke="#030303" stroke-miterlimit="10" stroke-width="1"/>
    <path id="Path_43" data-name="Path 43" d="M1998.471,314.9l12.823-48.979-9.459-13.874,28.588.21,9.039,14.294h15.345" transform="translate(-1998.471 -227.157)" fill="none" stroke="#030303" stroke-miterlimit="10" stroke-width="1"/>
    <line id="Line_17" data-name="Line 17" x2="14.715" y2="48.768" transform="translate(86.816 38.972)" fill="none" stroke="#030303" stroke-miterlimit="10" stroke-width="1"/>
  </g>
</svg>
