<svg xmlns="http://www.w3.org/2000/svg" width="90.339" height="84.033" viewBox="0 0 90.339 84.033">
  <g id="Group_910" data-name="Group 910" transform="translate(-251.158 -195.832)">
    <path id="Path_856" data-name="Path 856" d="M370.71,259.239c.2-2.281,2.5-2.154,2.659-.92a1.1,1.1,0,0,1-1.1,1.385,29.9,29.9,0,0,1-3.286.029c-1.361-.062-.518-2.733-.518-2.733s1.751-9.428,11.669-8.31c7.351.828,9.953,9.131,5.686,15.471-1.126,1.673.4,4.646.4,4.966" transform="translate(-85.092 -38.16)" fill="none" stroke="#1a1818" stroke-miterlimit="10" stroke-width="1"/>
    <path id="Path_857" data-name="Path 857" d="M269.185,230.619l-9.176-.028-.37-24.795-.035-8.588a.854.854,0,0,0-.832-.825h0a.779.779,0,0,0-.8.8l.11,4.213a.717.717,0,0,1-.772.8.8.8,0,0,1-.813-.826l-.108-4.154c-.024-.93-.79-.883-.79-.883h0a.779.779,0,0,0-.8.8l.11,4.214a.729.729,0,0,1-.753.8h0a.778.778,0,0,1-.789-.824l-.088-3.986a.854.854,0,0,0-.832-.825h0a.778.778,0,0,0-.8.8l.172,41.306h17.354" transform="translate(0)" fill="none" stroke="#1a1818" stroke-miterlimit="10" stroke-width="1"/>
    <path id="Path_858" data-name="Path 858" d="M355.376,290.251l-.525,2.8,1.185,6.189-8.767-.027" transform="translate(-69.807 -68.572)" fill="none" stroke="#1a1818" stroke-miterlimit="10" stroke-width="1"/>
    <path id="Path_859" data-name="Path 859" d="M505.6,329" transform="translate(-185.41 -96.863)" fill="none" stroke="#1a1818" stroke-miterlimit="10" stroke-width="1"/>
    <path id="Path_860" data-name="Path 860" d="M435.526,308.408c.2-2.281,2.5-2.154,2.659-.92a1.1,1.1,0,0,1-1.1,1.385,29.906,29.906,0,0,1-3.286.029c-1.361-.062-.518-2.733-.518-2.733s1.751-9.428,11.669-8.31c7.351.828,9.953,9.131,5.686,15.471-1.126,1.673-.719,4.96-.724,5.28,0,0,7.107.27,10.206.363,8.114.244,14.034,4.27,13.224,15.875l-.22,18.576H454.227l-13.764-28.337" transform="translate(-132.416 -74.059)" fill="none" stroke="#1a1818" stroke-miterlimit="10" stroke-width="1"/>
    <path id="Path_861" data-name="Path 861" d="M350.385,270.848l-.525,2.8,1.185,6.189-26.219-.073-.37-24.795-.035-8.588a.854.854,0,0,0-.832-.825h0a.779.779,0,0,0-.8.8l.11,4.214a.718.718,0,0,1-.772.8.8.8,0,0,1-.813-.826l-.109-4.154c-.023-.93-.79-.883-.79-.883h0a.779.779,0,0,0-.8.8l.11,4.214a.729.729,0,0,1-.753.8h0a.778.778,0,0,1-.789-.824L318.1,246.5a.854.854,0,0,0-.832-.825h0a.779.779,0,0,0-.8.8l.172,41.306h21.942l5.447,15.227" transform="translate(-47.323 -35.899)" fill="none" stroke="#1a1818" stroke-miterlimit="10" stroke-width="1"/>
  </g>
</svg>
