<svg xmlns="http://www.w3.org/2000/svg" width="115.198" height="93.907" viewBox="0 0 115.198 93.907">
  <g id="Group_881" data-name="Group 881" transform="translate(0.633 0.503)">
    <path id="Path_27" data-name="Path 27" d="M519.716,343.5l4.878,20.77s-15.106,2.518-17.308-9.913" transform="translate(-430.813 -296.227)" fill="none" stroke="#030303" stroke-miterlimit="10" stroke-width="1"/>
    <path id="Path_28" data-name="Path 28" d="M208.461,369.445c-3.3,16.05-25.176,12.431-25.176,12.431l11.157-39.635" transform="translate(-183.285 -295.266)" fill="none" stroke="#030303" stroke-miterlimit="10" stroke-width="1"/>
    <ellipse id="Ellipse_10" data-name="Ellipse 10" cx="31.746" cy="24.311" rx="31.746" ry="24.311" transform="translate(19.944 44.283)" fill="none" stroke="#030303" stroke-miterlimit="10" stroke-width="1"/>
    <path id="Path_29" data-name="Path 29" d="M284.841,153.785c.157-2.242,2.423-2.154,2.6-.944a1.084,1.084,0,0,1-1.062,1.377,29.377,29.377,0,0,1-3.226.079c-1.338-.039-.551-2.675-.551-2.675s1.573-9.284,11.329-8.34c7.23.7,9.913,8.812,5.822,15.1-1.08,1.66-.629,4.881-.629,5.2l9.126-1.731,7.081,19.669L277.7,213.329a1.151,1.151,0,0,1-1.622-.062h0a1.151,1.151,0,0,1,.062-1.622l4.135-3.829a1.05,1.05,0,0,0,.1-1.577h0a1.075,1.075,0,0,0-1.58-.017l-5.018,4.646a1.151,1.151,0,0,1-1.622-.063h0a1.055,1.055,0,0,1,.166-1.634l4.956-4.589a1.085,1.085,0,0,0,.082-1.6,1.056,1.056,0,0,0-1.6-.035l-5.018,4.646a1.151,1.151,0,0,1-1.622-.062h0a1.151,1.151,0,0,1,.062-1.622l3.757-3.479A1.131,1.131,0,0,0,273,200.79a1.056,1.056,0,0,0-1.6-.035l-3.757,3.479-15.115,13.161H232.875l-6.923-33.988,13.375-2.99a15.431,15.431,0,0,0-.315-6.451c-1.807-5.873-1.495-12.037,4.563-14.634,5.023-2.153,11.8-.629,13.69,7.71l.354,1.849s.354,2.164-2.635,2.124h-2.36s-1.279-.039-1.043-1.633c.206-1.387,2.655-1.711,2.891,1l.275,4.366-1.888,4.721,7.867.315s9.517-.362,11.686,7.559" transform="translate(-215.881 -143.214)" fill="none" stroke="#030303" stroke-miterlimit="10" stroke-width="1"/>
    <path id="Path_30" data-name="Path 30" d="M393.825,223.386V220c-.944-21.4,15.42-20.692,15.42-20.692h4.563l-1.259-6.058.472-2.754" transform="translate(-344.102 -179.339)" fill="none" stroke="#030303" stroke-miterlimit="10" stroke-width="1"/>
    <path id="Path_31" data-name="Path 31" d="M613.094,348.241a6.019,6.019,0,1,1-12.037,0Z" transform="translate(-502.452 -299.849)" fill="none" stroke="#030303" stroke-miterlimit="10" stroke-width="1"/>
    <ellipse id="Ellipse_11" data-name="Ellipse 11" cx="1.652" cy="1.652" rx="1.652" ry="1.652" transform="translate(110.76 48.392)" fill="none" stroke="#030303" stroke-miterlimit="10" stroke-width="1"/>
    <g id="Group_8" data-name="Group 8" transform="translate(103.444 34.525)">
      <path id="Path_32" data-name="Path 32" d="M621.557,300.23c0-1.79.944-1.79.944-3.579s-.944-1.79-.944-3.58.944-1.79.944-3.58" transform="translate(-621.557 -289.491)" fill="none" stroke="#030303" stroke-miterlimit="10" stroke-width="1"/>
    </g>
    <g id="Group_9" data-name="Group 9" transform="translate(106.04 34.525)">
      <path id="Path_33" data-name="Path 33" d="M632.557,300.23c0-1.79.944-1.79.944-3.579s-.944-1.79-.944-3.58.944-1.79.944-3.58" transform="translate(-632.557 -289.491)" fill="none" stroke="#030303" stroke-miterlimit="10" stroke-width="1"/>
    </g>
  </g>
</svg>
