<svg xmlns="http://www.w3.org/2000/svg" width="128.74" height="99.884" viewBox="0 0 128.74 99.884">
  <g id="Group_878" data-name="Group 878" transform="translate(0.508 0.51)">
    <path id="Path_44" data-name="Path 44" d="M3154.081,263.59a12.292,12.292,0,1,0-24.585,0c0,.034,0,.066,0,.1a20.521,20.521,0,0,0-19.036,4.675,26.7,26.7,0,0,0-21.775-5.533,12.3,12.3,0,0,0-10.949-8.42,12.426,12.426,0,0,0,.084-1.422,12.292,12.292,0,1,0-20.938,8.736,17.925,17.925,0,0,0,10.557,32.411,26.673,26.673,0,0,0,49.193,8.392,20.5,20.5,0,0,0,26.624-26.738A12.292,12.292,0,0,0,3154.081,263.59Z" transform="translate(-3036.85 -216.839)" fill="none" stroke="#030303" stroke-miterlimit="10" stroke-width="1"/>
    <path id="Path_45" data-name="Path 45" d="M3008.465,456.1a7.124,7.124,0,0,0,5.757-1.672,9.141,9.141,0,0,0,4.289,1.812,8.378,8.378,0,1,0,2.415-16.558,8.847,8.847,0,0,0-8.726,3.8,7.365,7.365,0,0,0-1.82-.511,6.642,6.642,0,1,0-1.915,13.127Z" transform="translate(-3002.436 -362.207)" fill="none" stroke="#030303" stroke-miterlimit="10" stroke-width="1"/>
    <path id="Path_46" data-name="Path 46" d="M3410.767,152.352a6.149,6.149,0,0,0-4.986,1.384,7.888,7.888,0,0,0-3.683-1.609,7.232,7.232,0,1,0-2.256,14.266,7.636,7.636,0,0,0,7.571-3.191,6.33,6.33,0,0,0,1.566.46,5.733,5.733,0,1,0,1.789-11.31Z" transform="translate(-3288.177 -152.028)" fill="none" stroke="#030303" stroke-miterlimit="10" stroke-width="1"/>
    <path id="Path_48" data-name="Path 48" d="M3206.911,209.8l.393,2.091-.747,7.559,30.068,18.758,15.9-16.12,17.887,9.5,5.079-7.729s4.417,11.336-6.477,15.163" transform="translate(-3151.634 -194.257)" fill="none" stroke="#030303" stroke-miterlimit="10" stroke-width="1"/>
    <path id="Path_49" data-name="Path 49" d="M3196.623,202.9l7.89.031a.785.785,0,0,1,.759.765h0a.716.716,0,0,1-.734.731l-3.871-.1a.659.659,0,0,0-.736.709.739.739,0,0,0,.759.747l3.817.1c.855.022.812.726.812.726h0a.715.715,0,0,1-.734.732l-3.871-.1a.67.67,0,0,0-.735.691h0a.715.715,0,0,0,.757.725l3.662.081a.785.785,0,0,1,.758.764h0a.715.715,0,0,1-.734.732l-7.644-.159s-11.814-.271-20.261-.271c-2.655,0-4.242.015-4.968,1.1-1.325,1.987.5,3.7,1.638,3.368a2.876,2.876,0,0,0,1.914-2.65c.092-2.816.288-2.55.037-4.417-1.5-11.126-13.16-10.408-13.16-10.408,0-.239.448-5.347-.394-6.6-3.19-4.74-1.244-10.948,4.252-11.568,7.416-.835,8.724,6.213,8.724,6.213s.631,2-.387,2.043a22.31,22.31,0,0,1-2.457-.021.825.825,0,0,1-.825-1.035c.117-.923,1.842-1.017,1.988.688" transform="translate(-3117.637 -171.425)" fill="none" stroke="#030303" stroke-miterlimit="10" stroke-width="1"/>
    <path id="Path_50" data-name="Path 50" d="M3334.173,211.392l5.741-6.478V188.721" transform="translate(-3244.912 -178.848)" fill="none" stroke="#030303" stroke-miterlimit="10" stroke-width="1"/>
  </g>
</svg>
