<svg xmlns="http://www.w3.org/2000/svg" width="388.215" height="251.353" viewBox="0 0 388.215 251.353">
  <g id="Group_856" data-name="Group 856" transform="translate(-1105.51 -7218.203)">
    <path id="Union_4" data-name="Union 4" d="M-4137.433,12005.553a6.9,6.9,0,0,1-4.836-1.94,13.93,13.93,0,0,1-3.733-6.791,26.216,26.216,0,0,1-.675-11.2,24.091,24.091,0,0,1,1.717-6.113l.2-.4v.1a12.774,12.774,0,0,1,2.5-3.4,6.911,6.911,0,0,1,5.01-1.94,7.445,7.445,0,0,1,5.089,2.208,7.242,7.242,0,0,1,.268,10.1,12.768,12.768,0,0,1-6.454,3.544,12.709,12.709,0,0,1,6.454,3.54,7.242,7.242,0,0,1-.268,10.1,7.458,7.458,0,0,1-5.089,2.208Zm-21.079-15.845a4.666,4.666,0,0,1,4.661-4.661,4.665,4.665,0,0,1,4.661,4.661,4.666,4.666,0,0,1-4.661,4.657A4.667,4.667,0,0,1-4158.512,11989.708Z" transform="translate(5339.766 -4564.438)" fill="#1f1f1f" stroke="rgba(0,0,0,0)" stroke-width="1"/>
    <line id="Line_54" data-name="Line 54" x2="32.451" transform="translate(1182.267 7326.637)" fill="none" stroke="#ffb71b" stroke-linecap="round" stroke-miterlimit="10" stroke-width="2"/>
    <line id="Line_55" data-name="Line 55" x2="16.774" y2="29.054" transform="translate(1159.591 7294.862)" fill="none" stroke="#ffb71b" stroke-linecap="round" stroke-miterlimit="10" stroke-width="2"/>
    <line id="Line_56" data-name="Line 56" y1="29.128" x2="16.817" transform="translate(1281.052 7329.985)" fill="none" stroke="#ffb71b" stroke-linecap="round" stroke-miterlimit="10" stroke-width="2"/>
    <line id="Line_57" data-name="Line 57" x2="32.451" transform="translate(1243.047 7362.068)" fill="none" stroke="#ffb71b" stroke-linecap="round" stroke-miterlimit="10" stroke-width="2"/>
    <line id="Line_58" data-name="Line 58" x2="32.451" transform="translate(1243.047 7291.111)" fill="none" stroke="#ffb71b" stroke-linecap="round" stroke-miterlimit="10" stroke-width="2"/>
    <line id="Line_59" data-name="Line 59" x2="16.775" y2="29.056" transform="translate(1220.371 7330.292)" fill="none" stroke="#ffb71b" stroke-linecap="round" stroke-miterlimit="10" stroke-width="2"/>
    <line id="Line_60" data-name="Line 60" x1="16.704" y2="28.931" transform="translate(1220.244 7294.76)" fill="none" stroke="#ffb71b" stroke-linecap="round" stroke-miterlimit="10" stroke-width="2"/>
    <line id="Line_61" data-name="Line 61" x1="16.711" y1="28.944" transform="translate(1281.272 7295.031)" fill="none" stroke="#ffb71b" stroke-linecap="round" stroke-miterlimit="10" stroke-width="2"/>
    <line id="Line_62" data-name="Line 62" x2="32.451" transform="translate(1181.973 7397.302)" fill="none" stroke="#ffb71b" stroke-linecap="round" stroke-miterlimit="10" stroke-width="2"/>
    <line id="Line_63" data-name="Line 63" x2="32.451" transform="translate(1181.973 7326.346)" fill="none" stroke="#ffb71b" stroke-linecap="round" stroke-miterlimit="10" stroke-width="2"/>
    <line id="Line_64" data-name="Line 64" x2="16.774" y2="29.055" transform="translate(1159.298 7365.527)" fill="none" stroke="#ffb71b" stroke-linecap="round" stroke-miterlimit="10" stroke-width="2"/>
    <line id="Line_65" data-name="Line 65" x1="16.702" y2="28.931" transform="translate(1159.17 7329.995)" fill="none" stroke="#ffb71b" stroke-linecap="round" stroke-miterlimit="10" stroke-width="2"/>
    <line id="Line_66" data-name="Line 66" x1="16.711" y1="28.944" transform="translate(1220.198 7330.265)" fill="none" stroke="#ffb71b" stroke-linecap="round" stroke-miterlimit="10" stroke-width="2"/>
    <line id="Line_67" data-name="Line 67" y1="29.129" x2="16.817" transform="translate(1281.052 7400.455)" fill="none" stroke="#ffb71b" stroke-linecap="round" stroke-miterlimit="10" stroke-width="2"/>
    <line id="Line_68" data-name="Line 68" x2="32.451" transform="translate(1243.047 7432.538)" fill="none" stroke="#ffb71b" stroke-linecap="round" stroke-miterlimit="10" stroke-width="2"/>
    <line id="Line_69" data-name="Line 69" x2="32.451" transform="translate(1243.047 7361.582)" fill="none" stroke="#ffb71b" stroke-linecap="round" stroke-miterlimit="10" stroke-width="2"/>
    <line id="Line_70" data-name="Line 70" x2="16.775" y2="29.054" transform="translate(1220.371 7400.763)" fill="none" stroke="#ffb71b" stroke-linecap="round" stroke-miterlimit="10" stroke-width="2"/>
    <line id="Line_71" data-name="Line 71" x1="16.711" y1="28.945" transform="translate(1281.272 7365.5)" fill="none" stroke="#ffb71b" stroke-linecap="round" stroke-miterlimit="10" stroke-width="2"/>
    <line id="Line_72" data-name="Line 72" y1="29.129" x2="16.818" transform="translate(1342.126 7365.22)" fill="none" stroke="#ffb71b" stroke-linecap="round" stroke-miterlimit="10" stroke-width="2"/>
    <line id="Line_73" data-name="Line 73" x2="32.451" transform="translate(1304.121 7326.346)" fill="none" stroke="#ffb71b" stroke-linecap="round" stroke-miterlimit="10" stroke-width="2"/>
    <line id="Line_74" data-name="Line 74" x1="16.711" y1="28.944" transform="translate(1342.345 7330.265)" fill="none" stroke="#ffb71b" stroke-linecap="round" stroke-miterlimit="10" stroke-width="2"/>
    <line id="Line_75" data-name="Line 75" y1="29.128" x2="16.818" transform="translate(1342.908 7295.533)" fill="none" stroke="#ffb71b" stroke-linecap="round" stroke-miterlimit="10" stroke-width="2"/>
    <line id="Line_76" data-name="Line 76" x2="32.451" transform="translate(1304.905 7256.658)" fill="none" stroke="#ffb71b" stroke-linecap="round" stroke-miterlimit="10" stroke-width="2"/>
    <line id="Line_77" data-name="Line 77" x1="16.703" y2="28.932" transform="translate(1282.101 7260.308)" fill="none" stroke="#ffb71b" stroke-linecap="round" stroke-miterlimit="10" stroke-width="2"/>
    <line id="Line_78" data-name="Line 78" y1="29.129" x2="16.818" transform="translate(1220.76 7436.473)" fill="none" stroke="#ffb71b" stroke-linecap="round" stroke-miterlimit="10" stroke-width="2"/>
    <line id="Line_79" data-name="Line 79" x2="32.451" transform="translate(1182.756 7468.556)" fill="none" stroke="#ffb71b" stroke-linecap="round" stroke-miterlimit="10" stroke-width="2"/>
    <line id="Line_80" data-name="Line 80" x1="16.703" y2="28.932" transform="translate(1159.953 7401.248)" fill="none" stroke="#ffb71b" stroke-linecap="round" stroke-miterlimit="10" stroke-width="2"/>
    <line id="Line_81" data-name="Line 81" x1="16.712" y1="28.945" transform="translate(1220.98 7401.519)" fill="none" stroke="#ffb71b" stroke-linecap="round" stroke-miterlimit="10" stroke-width="2"/>
    <line id="Line_82" data-name="Line 82" y1="29.128" x2="16.818" transform="translate(1341.343 7435.691)" fill="none" stroke="#ffb71b" stroke-linecap="round" stroke-miterlimit="10" stroke-width="2"/>
    <line id="Line_83" data-name="Line 83" x2="32.451" transform="translate(1303.339 7467.773)" fill="none" stroke="#ffb71b" stroke-linecap="round" stroke-miterlimit="10" stroke-width="2"/>
    <line id="Line_84" data-name="Line 84" x2="32.451" transform="translate(1303.339 7396.816)" fill="none" stroke="#ffb71b" stroke-linecap="round" stroke-miterlimit="10" stroke-width="2"/>
    <line id="Line_85" data-name="Line 85" x2="16.775" y2="29.054" transform="translate(1280.662 7435.999)" fill="none" stroke="#ffb71b" stroke-linecap="round" stroke-miterlimit="10" stroke-width="2"/>
    <line id="Line_86" data-name="Line 86" x1="16.712" y1="28.943" transform="translate(1341.562 7400.736)" fill="none" stroke="#ffb71b" stroke-linecap="round" stroke-miterlimit="10" stroke-width="2"/>
    <line id="Line_87" data-name="Line 87" x2="32.452" transform="translate(1364.412 7433.321)" fill="none" stroke="#ffb71b" stroke-linecap="round" stroke-miterlimit="10" stroke-width="2"/>
    <line id="Line_88" data-name="Line 88" x2="32.452" transform="translate(1364.412 7362.363)" fill="none" stroke="#ffb71b" stroke-linecap="round" stroke-miterlimit="10" stroke-width="2"/>
    <line id="Line_89" data-name="Line 89" x1="16.711" y1="28.944" transform="translate(1402.637 7366.284)" fill="none" stroke="#ffb71b" stroke-linecap="round" stroke-miterlimit="10" stroke-width="2"/>
    <line id="Line_90" data-name="Line 90" y1="29.128" x2="16.818" transform="translate(1403.199 7329.985)" fill="none" stroke="#ffb71b" stroke-linecap="round" stroke-miterlimit="10" stroke-width="2"/>
    <line id="Line_91" data-name="Line 91" x2="32.451" transform="translate(1365.195 7291.111)" fill="none" stroke="#ffb71b" stroke-linecap="round" stroke-miterlimit="10" stroke-width="2"/>
    <line id="Line_92" data-name="Line 92" x1="16.703" y2="28.931" transform="translate(1342.392 7294.76)" fill="none" stroke="#ffb71b" stroke-linecap="round" stroke-miterlimit="10" stroke-width="2"/>
    <line id="Line_93" data-name="Line 93" x1="16.712" y1="28.944" transform="translate(1403.42 7295.031)" fill="none" stroke="#ffb71b" stroke-linecap="round" stroke-miterlimit="10" stroke-width="2"/>
    <path id="Path_805" data-name="Path 805" d="M142.462,434.551a47.982,47.982,0,0,0,40.6-17.717c2.714-3.427,5.014-7.445,5.142-11.811s-2.5-9.04-6.749-10.057c-5.708-1.365-11.2,5.035-10.218,10.824s6.685,9.912,12.506,10.662,11.658-1.226,16.945-3.779c12.984-6.271,23.9-16.025,34.893-25.351s22.546-18.515,36.15-23.3,29.8-4.469,41.306,4.217c7.227,5.454,11.956,13.635,15.138,22.111,2.5,6.661,4.168,13.977,2.406,20.87s-7.79,13.087-14.906,13.039-13.432-8.337-10.134-14.641c2.576-4.924,9.233-6.33,14.629-4.994s10.02,4.7,14.953,7.26c21.087,10.945,48.734,5.975,66.043-10.3s24.095-42.271,18.891-65.453-21.556-43.174-42.3-54.759-45.486-15.1-69.029-11.906-45.925,12.825-65.766,25.9c0,0-145.793,82.807-208.207-65.016" transform="translate(1071.408 6988.508)" fill="none" stroke="#000" stroke-linecap="round" stroke-miterlimit="10" stroke-width="1" stroke-dasharray="1 3"/>
  </g>
</svg>
