<svg xmlns="http://www.w3.org/2000/svg" width="28.904" height="28.905" viewBox="0 0 28.904 28.905">
  <g id="f_logo_RGB-Blue_1024" transform="translate(0 0)">
    <g id="Group-3" transform="translate(0)">
      <path id="Fill-1" d="M28.9,14.452a14.452,14.452,0,1,0-16.71,14.277V18.63H8.525V14.452h3.67V11.268c0-3.622,2.158-5.623,5.459-5.623a22.225,22.225,0,0,1,3.235.282V9.484H19.066a2.089,2.089,0,0,0-2.355,2.257v2.711h4.008l-.641,4.178H16.71v10.1A14.456,14.456,0,0,0,28.9,14.452" transform="translate(0)" fill="#3377f2" fill-rule="evenodd"/>
    </g>
    <path id="Fill-4" d="M313.553,212.984l.641-4.178h-4.008V206.1a2.089,2.089,0,0,1,2.355-2.257h1.822v-3.557a22.227,22.227,0,0,0-3.235-.282c-3.3,0-5.459,2-5.459,5.623v3.184H302v4.178h3.669v10.1a14.609,14.609,0,0,0,4.516,0v-10.1h3.368" transform="translate(-293.475 -194.355)" fill="#fffffe" fill-rule="evenodd"/>
  </g>
</svg>
