<svg xmlns="http://www.w3.org/2000/svg" xmlns:xlink="http://www.w3.org/1999/xlink" width="78" height="74" viewBox="0 0 78 74"><defs><linearGradient id="a" x1="0.552" y1="-0.275" x2="0.5" y2="1" gradientUnits="objectBoundingBox"><stop offset="0" stop-color="#fff"/><stop offset="1" stop-color="#f7f7f7"/></linearGradient></defs><g transform="translate(-13 -113)"><g transform="translate(13 113)" stroke="#f2f2f2" stroke-width="1" fill="url(#a)"><rect width="78" height="74" rx="7" stroke="none"/><rect x="0.5" y="0.5" width="77" height="73" rx="6.5" fill="none"/></g><g transform="translate(19.786 122.186)"><path d="M2172.542,152.472c.108-1.259,1.381-1.189,1.467-.508a.609.609,0,0,1-.609.764,16.521,16.521,0,0,1-1.814.016c-.751-.034-.286-1.508-.286-1.508a5.71,5.71,0,0,1,6.442-4.587c4.058.457,5.493,5.04,3.139,8.54a5.5,5.5,0,0,0-.4,2.915s9.722-1.887,9.324,13.237h15.124" transform="translate(-2145.433 -146.598)" fill="none" stroke="#00ac6f" stroke-miterlimit="10" stroke-width="1"/><path d="M2038.026,188.251l-.289,1.544.654,3.416-2.565-.04s-9.191-.543-8.85,11.494l-.03,1.9h-13.818" transform="translate(-2010.945 -182.046)" fill="none" stroke="#00ac6f" stroke-miterlimit="10" stroke-width="1"/><path d="M2143.642,280.191l22.149,27.342,4.776-2.985-1.592-2.786,3.383-2.388-11.869-29.222" transform="translate(-2122.016 -251.745)" fill="none" stroke="#00ac6f" stroke-miterlimit="10" stroke-width="0.5"/><path d="M1998.471,291.716l8.093-30.914-5.97-8.757,18.044.133,5.705,9.022h9.685" transform="translate(-1998.471 -236.337)" fill="none" stroke="#00ac6f" stroke-miterlimit="10" stroke-width="1"/><line x2="9.287" y2="30.781" transform="translate(54.795 24.598)" fill="none" stroke="#00ac6f" stroke-miterlimit="10" stroke-width="1"/></g><path d="M2143.642,280.191l22.149,27.342,4.776-2.985-1.592-2.786,3.383-2.388-11.869-29.222" transform="translate(-2102.23 -129.56)" fill="none" stroke="#00ac6f" stroke-miterlimit="10" stroke-width="1"/></g></svg>