<svg xmlns="http://www.w3.org/2000/svg" xmlns:xlink="http://www.w3.org/1999/xlink" width="78.12" height="74" viewBox="0 0 78.12 74"><defs><linearGradient id="a" x1="0.552" y1="-0.275" x2="0.5" y2="1" gradientUnits="objectBoundingBox"><stop offset="0" stop-color="#fff"/><stop offset="1" stop-color="#f7f7f7"/></linearGradient><clipPath id="b"><rect width="31.78" height="56.997" transform="translate(0 0)" fill="#ffd571" stroke="#707070" stroke-width="1"/></clipPath><clipPath id="c"><rect width="21.021" height="37.7" transform="translate(0 0)" fill="#ffd571" stroke="#707070" stroke-width="1"/></clipPath><clipPath id="d"><rect width="78" height="74" rx="7" transform="translate(-9795 11262)" fill="#f4f4f4"/></clipPath></defs><g transform="translate(-15 -112)"><g transform="translate(15 112)" stroke="#f2f2f2" stroke-width="1" fill="url(#a)"><rect width="78" height="74" rx="7" stroke="none"/><rect x="0.5" y="0.5" width="77" height="73" rx="6.5" fill="none"/></g><g transform="translate(72.487 142.151) rotate(90)" clip-path="url(#b)"><circle cx="26.037" cy="26.037" r="26.037" transform="translate(6.859 3.299)" fill="#ffd571"/></g><g transform="translate(93.12 154.54) rotate(180)" clip-path="url(#c)"><circle cx="17.222" cy="17.222" r="17.222" transform="translate(4.537 2.182)" fill="#ffd571"/></g><g transform="translate(9810 -11150)" clip-path="url(#d)"><g transform="translate(-9806.476 11278.253)"><path d="M1192.955,164.31c-8.353,18.2,4.137,16.388,4.137,16.388l2.862-12.839,7.178-.063v-8.579h-3.644v4.96h-8.79l-1.7.021,1.45-3.964-.093-1.477c-.08-.918-.908-.808-.978-.339-.08.539.353.552.353.552h.8c1.011.013.891-.718.891-.718l-.12-.625c-.639-2.82-2.931-3.335-4.629-2.607-2.048.878-2.154,2.962-1.543,4.948a6.039,6.039,0,0,1,.106,2.341l-3.117-.021s-4.589-.386-4.749,4.842v8.617l-9.085-.063V171.9l11.312.152" transform="translate(-1143.377 -153.65)" fill="none" stroke="#030303" stroke-miterlimit="10" stroke-width="1"/><path d="M1272.8,302.291" transform="translate(-1227.148 -280.909)" fill="none" stroke="#030303" stroke-miterlimit="10" stroke-width="1"/><path d="M1383.568,361.635" transform="translate(-1317.42 -332.086)" fill="none" stroke="#030303" stroke-miterlimit="10" stroke-width="1"/><path d="M1153.534,210.548l-6.681,17.158h-11.009l-4.935,12.375h4.479l-2.581,6.074h5.011l5.238-12.6h11.085s5.314.38,5.542-4.631" transform="translate(-1107.697 -201.792)" fill="none" stroke="#030303" stroke-miterlimit="10" stroke-width="1"/><path d="M1145.18,284.146l-4.618.1a.432.432,0,0,1-.443-.442h0a.474.474,0,0,1,.458-.462l2.212-.049a.431.431,0,0,0,.457-.438h0a.4.4,0,0,0-.444-.418l-2.339.061a.432.432,0,0,1-.443-.442h0s-.026-.425.49-.439l2.306-.06a.446.446,0,0,0,.458-.451.4.4,0,0,0-.444-.428l-2.339.061a.432.432,0,0,1-.443-.442h0a.474.474,0,0,1,.458-.462l4.766-.019" transform="translate(-1116.323 -261.841)" fill="none" stroke="#030303" stroke-miterlimit="10" stroke-width="0.5"/><path d="M1398.493,160.7l-.093-4.565a.423.423,0,0,1,.429-.438h0a.464.464,0,0,1,.448.453l.048,2.187a.422.422,0,0,0,.425.452h0a.4.4,0,0,0,.406-.439l-.059-2.312a.424.424,0,0,1,.429-.438h0s.413-.026.426.485l.058,2.28a.438.438,0,0,0,.438.453.389.389,0,0,0,.416-.439l-.059-2.312a.423.423,0,0,1,.429-.438h0a.464.464,0,0,1,.448.453l.019,4.712" transform="translate(-1338.667 -154.745)" fill="none" stroke="#030303" stroke-miterlimit="10" stroke-width="0.5"/><g transform="translate(43.207 31.065)"><line y1="8.144" x2="31.592" transform="translate(0)" fill="none" stroke="#030303" stroke-miterlimit="10" stroke-width="1"/><line x1="0.257" y1="14.718" transform="translate(3.899 7.322)" fill="none" stroke="#030303" stroke-miterlimit="10" stroke-width="1"/><line x2="6.033" y2="13.086" transform="translate(27.706 1.185)" fill="none" stroke="#030303" stroke-miterlimit="10" stroke-width="1"/></g><g transform="translate(73.962 10.057)"><line x2="32.255" y2="4.898" transform="translate(1.627)" fill="none" stroke="#030303" stroke-miterlimit="10" stroke-width="1"/><line y1="13.64" x2="5.536" transform="translate(0 0.773)" fill="none" stroke="#030303" stroke-miterlimit="10" stroke-width="1"/><line x2="0.418" y2="14.404" transform="translate(29.843 4.464)" fill="none" stroke="#030303" stroke-miterlimit="10" stroke-width="1"/></g><g transform="translate(0 0)"><line y1="26.86" x2="18.518" transform="translate(0 0)" fill="none" stroke="#030303" stroke-miterlimit="10" stroke-width="1"/><line x1="9.843" y1="10.946" transform="translate(2.405 23.684)" fill="none" stroke="#030303" stroke-miterlimit="10" stroke-width="1"/><line x2="13.135" y2="5.927" transform="translate(16.36 3.442)" fill="none" stroke="#030303" stroke-miterlimit="10" stroke-width="1"/></g></g></g></g></svg>