<svg xmlns="http://www.w3.org/2000/svg" width="20.03" height="19.526" viewBox="0 0 20.03 19.526">
  <path id="Path_853" data-name="Path 853" d="M10.9-14.826a10.639,10.639,0,0,1,5.029,1.165,8.517,8.517,0,0,1,3.455,3.276,9.34,9.34,0,0,1,1.239,4.82A7.949,7.949,0,0,1,19.7-1.4,2.868,2.868,0,0,1,17.136.1,2.323,2.323,0,0,1,15.467-.5a2.415,2.415,0,0,1-.7-1.68A4.393,4.393,0,0,1,13.041-.493a5.07,5.07,0,0,1-2.478.6A5.11,5.11,0,0,1,7.907-.6,5.038,5.038,0,0,1,6.037-2.541a5.691,5.691,0,0,1-.682-2.793,5.632,5.632,0,0,1,.682-2.782,4.982,4.982,0,0,1,1.869-1.922,5.169,5.169,0,0,1,2.657-.693,5.067,5.067,0,0,1,2.425.578,4.5,4.5,0,0,1,1.733,1.627v-2.121h1.365v7.959a1.735,1.735,0,0,0,.357,1.218,1.239,1.239,0,0,0,.945.378,1.75,1.75,0,0,0,1.564-1.176,7.57,7.57,0,0,0,.578-3.276,8.319,8.319,0,0,0-1.092-4.294,7.5,7.5,0,0,0-3.055-2.887A9.515,9.515,0,0,0,10.9-13.755a9.329,9.329,0,0,0-4.5,1.06A7.594,7.594,0,0,0,3.339-9.713,8.7,8.7,0,0,0,2.247-5.334,8.83,8.83,0,0,0,3.329-.945a7.61,7.61,0,0,0,3.024,3,9.09,9.09,0,0,0,4.462,1.071A9.906,9.906,0,0,0,12.884,2.9,7.657,7.657,0,0,0,14.847,2.2L15.2,3.234a8.414,8.414,0,0,1-2.09.714,11.059,11.059,0,0,1-2.3.252A10.293,10.293,0,0,1,5.754,2.982,8.7,8.7,0,0,1,2.32-.41,9.832,9.832,0,0,1,1.092-5.334a9.692,9.692,0,0,1,1.239-4.924,8.683,8.683,0,0,1,3.475-3.36A10.548,10.548,0,0,1,10.9-14.826ZM10.752-1.113a3.978,3.978,0,0,0,2.037-.525,3.776,3.776,0,0,0,1.428-1.48,4.527,4.527,0,0,0,.525-2.216,4.483,4.483,0,0,0-.525-2.194A3.7,3.7,0,0,0,12.789-9a4.041,4.041,0,0,0-2.037-.515,4.076,4.076,0,0,0-2.069.525,3.7,3.7,0,0,0-1.428,1.47,4.5,4.5,0,0,0-.514,2.184,4.556,4.556,0,0,0,.514,2.195A3.755,3.755,0,0,0,8.684-1.649,4.013,4.013,0,0,0,10.752-1.113Z" transform="translate(-0.842 15.076)" fill="#fb3449" stroke="#fb3449" stroke-width="0.5"/>
</svg>
