<svg xmlns="http://www.w3.org/2000/svg" width="30.76" height="19.848" viewBox="0 0 30.76 19.848">
  <path id="Path_852" data-name="Path 852" d="M-14.85,98.082c-1.447,0-2.688-.93-2.688-2.067s1.137-2.067,2.688-2.067c1.447,0,2.688.93,2.688,2.067S-13.4,98.082-14.85,98.082Zm0-5.686c-2.274,0-4.238,1.654-4.238,3.618s1.861,3.618,4.238,3.618c2.274,0,4.238-1.654,4.238-3.618S-12.576,92.4-14.85,92.4ZM-1.1,93.947a2.566,2.566,0,0,1-1.344,1.861,3.835,3.835,0,0,1-3.1-.1,11.82,11.82,0,0,0-3.2-4.238,9.183,9.183,0,0,0-6.1-2.171,10.573,10.573,0,0,0-6.306,2.171,12.4,12.4,0,0,0-3.308,4.342,3.477,3.477,0,0,1-2.894,0A2.864,2.864,0,0,1-28.7,93.947a3.233,3.233,0,0,1,.827-2.791c2.378-2.791,7.236-4.445,13.025-4.445S-4.2,88.365-1.928,91.156A3.148,3.148,0,0,1-1.1,93.947Zm-5.479,8.58a2.67,2.67,0,0,1-2.171.93h-12.2a3.151,3.151,0,0,1-2.378-.827,4.206,4.206,0,0,1-.62-3A11.276,11.276,0,0,1-20.122,92.6a8.9,8.9,0,0,1,5.375-1.861A7.3,7.3,0,0,1-9.681,92.6a12.154,12.154,0,0,1,3.825,7.029A3.84,3.84,0,0,1-6.58,102.527Zm5.892-12.4c-2.584-3.1-7.856-4.962-14.162-4.962h0c-6.2,0-11.578,1.861-14.162,4.962a4.789,4.789,0,0,0-1.137,4.135,4.06,4.06,0,0,0,2.068,2.894,4.479,4.479,0,0,0,1.964.414,3.516,3.516,0,0,0,1.034-.1,10.984,10.984,0,0,0-.414,1.964,5.084,5.084,0,0,0,1.034,4.238,4.338,4.338,0,0,0,3.308,1.344h12.4a4.148,4.148,0,0,0,3.308-1.447,5.909,5.909,0,0,0,1.137-4.135,13.292,13.292,0,0,0-.414-1.964,3.876,3.876,0,0,0,1.137.1,4.479,4.479,0,0,0,1.964-.414A4.06,4.06,0,0,0,.45,94.257,5.035,5.035,0,0,0-.688,90.122Z" transform="translate(30.25 -85.16)" fill="#fb3449"/>
</svg>
