<svg xmlns="http://www.w3.org/2000/svg" xmlns:xlink="http://www.w3.org/1999/xlink" width="117.681" height="105.779" viewBox="0 0 117.681 105.779"><defs><clipPath id="a"><path d="M0,0H117.681V105.779H0Z" fill="none"/></clipPath></defs><g transform="translate(-101 -40)"><g transform="translate(101 40)"><path d="M0,0H117.681V105.779H0Z" fill="none"/><g clip-path="url(#a)"><path d="M115.954,105.78a1.993,1.993,0,0,1-1.916-1.09l-.049-.1.647-.337.052.09a1.306,1.306,0,0,0,1.25.739c.485,0,.975-.235.975-.76,0-.421-.232-.663-.918-.962l-.415-.187c-.73-.322-1.216-.7-1.216-1.49a1.364,1.364,0,0,1,1.482-1.326,1.659,1.659,0,0,1,1.5.812l.058.094-.63.382-.057-.09a.952.952,0,0,0-.875-.5c-.445,0-.721.237-.721.617s.164.544.765.814l.415.185c.977.423,1.376.9,1.376,1.654C117.681,105.2,116.987,105.78,115.954,105.78Zm-26.712,0a2.712,2.712,0,1,1-.046-5.42,2.559,2.559,0,0,1,1.9.689l.074.077-.532.517-.075-.076a1.815,1.815,0,0,0-1.365-.506,1.94,1.94,0,0,0-2,2.008,1.962,1.962,0,0,0,2.049,2.007,2.357,2.357,0,0,0,1.435-.408v-.886H89.126v-.695h2.29v1.928l-.032.032A3.046,3.046,0,0,1,89.242,105.78Zm-7.787,0a2.711,2.711,0,1,1,2.794-2.71A2.69,2.69,0,0,1,81.455,105.78Zm0-4.718a2.007,2.007,0,1,0,2,2.008A1.936,1.936,0,0,0,81.455,101.062ZM25.213,105.78a2.711,2.711,0,1,1,0-5.42,2.483,2.483,0,0,1,2.163,1.034l.059.088-.6.423-.063-.089a1.827,1.827,0,0,0-1.561-.754,2.007,2.007,0,0,0,0,4.015,1.914,1.914,0,0,0,1.632-.8l.062-.087.608.414-.063.089A2.637,2.637,0,0,1,25.213,105.78Zm29.706-.005H54.67l-3.151-3.63c-.033-.039-.069-.085-.107-.132l-.026-.032,0,.064c0,.049,0,.094,0,.136v3.541h-.738v-5.355h.249l3.149,3.628c.043.051.091.112.14.173l0-.007c0-.068-.005-.137-.005-.2v-3.541h.731v5.354Zm-44.628,0h-.249l-3.15-3.63c-.036-.041-.078-.093-.133-.164,0,.016,0,.036,0,.057,0,.045,0,.1,0,.143v3.541H6.028v-5.355h.25l3.148,3.628c.052.062.1.121.141.174q-.008-.126-.008-.208v-3.541h.731v5.354Zm97.016-.052h-.753V100.36h.236l.033.039,2.341,2.851,2.36-2.89h.245v5.36h-.754v-3.466c0-.039,0-.08,0-.123v-.07c-.063.091-.125.169-.157.208l-1.614,1.985h-.194l-.033-.04-1.559-1.945c-.052-.063-.108-.136-.157-.206l0,.058c0,.049,0,.094,0,.134v3.466Zm-12.594,0h-.77v-5.3h1.283c1.4,0,2.273.76,2.273,1.984a1.764,1.764,0,0,1-1.031,1.691l1.179,1.625-.919,0-1-1.383a3.518,3.518,0,0,1-.5.036h-.513v1.347Zm0-4.609v2.575h.482c1,0,1.512-.432,1.512-1.284s-.523-1.291-1.512-1.291Zm-21.091,4.609h-.768v-5.3h1.282c1.4,0,2.274.76,2.274,1.984a1.764,1.764,0,0,1-1.032,1.691l1.18,1.625-.919,0-1-1.383a3.493,3.493,0,0,1-.5.036h-.514v1.347Zm0-4.609v2.575h.484c1,0,1.511-.432,1.511-1.284s-.523-1.291-1.511-1.291Zm-36.165,4.609H36.7V100.36h.236l.033.039,2.342,2.851,2.359-2.89h.244v5.36h-.752v-3.466c0-.06,0-.126,0-.193-.064.09-.114.156-.157.21l-1.615,1.983H39.2l-.032-.041-1.559-1.945c-.052-.062-.1-.133-.158-.206l0,.01c0,.062,0,.124,0,.182v3.466Zm-6.851,0h-.77v-5.3h.77v2.864h2.578v-2.864h.77v5.3h-.77v-1.728H30.605v1.728Zm-16.8,0H13.04v-5.3h1.283c1.4,0,2.273.76,2.273,1.984a1.764,1.764,0,0,1-1.032,1.691l1.181,1.625-.92,0-1-1.383a3.492,3.492,0,0,1-.5.036h-.514v1.347Zm0-4.609v2.575h.483c1,0,1.511-.432,1.511-1.284s-.523-1.291-1.511-1.291Zm86.466,4.609h-.781l2.257-5.355h.234l2.3,5.354h-.818l-.354-.853h-2.5l-.345.853Zm1.59-3.925c-.033.1-.069.2-.1.282l-.86,2.109h1.927l-.86-2.11C101.936,102,101.9,101.9,101.865,101.8ZM67.6,105.721h-.768v-5.3h1.29c1.419,0,2.266.756,2.266,2.022s-.847,2.015-2.266,2.015H67.6v1.263Zm0-4.608v2.657h.492c1,0,1.5-.447,1.5-1.328s-.506-1.328-1.5-1.328Zm-8.018,4.608h-.77v-4.608h-1.6v-.694h3.98v.694H59.582v4.607Zm-11.413,0h-3.5v-5.3h3.395v.694H45.435v2.17h2.343v.688H45.435v1.056h2.734v.694Zm-28.216,0h-.777v-5.3h.777v5.3Zm-16.413,0H.038v-5.3H3.432v.694H.807v2.17H3.149v.688H.807v1.056H3.54v.694ZM75.8,98.305a3.758,3.758,0,0,1-1.038-.135,2.263,2.263,0,0,1-.8-.4,1.844,1.844,0,0,1-.522-.668,2.187,2.187,0,0,1-.185-.936,2.27,2.27,0,0,1,.221-1.06,1.875,1.875,0,0,1,.574-.662,2.2,2.2,0,0,1,.789-.343,3.875,3.875,0,0,1,.864-.1h1.9a2.731,2.731,0,0,0-.151-.963,1.7,1.7,0,0,0-.41-.636,1.568,1.568,0,0,0-.6-.356,2.4,2.4,0,0,0-.735-.111,3.132,3.132,0,0,0-.548.05,4.5,4.5,0,0,0-.477.1v-.706c.133-.038.3-.079.473-.119A2.909,2.909,0,0,1,75.8,91.2a2.752,2.752,0,0,1,1.148.221,2.241,2.241,0,0,1,.8.61,2.544,2.544,0,0,1,.468.9A4.069,4.069,0,0,1,78.37,94h9.774l0,0h.366a.976.976,0,0,0,.223-.027.614.614,0,0,0,.232-.115,1.117,1.117,0,0,0,.227-.247,1.751,1.751,0,0,0,.209-.424,4.558,4.558,0,0,1,.433-.924,2.288,2.288,0,0,1,.463-.545,1.254,1.254,0,0,1,.481-.255,1.972,1.972,0,0,1,.485-.062,1.522,1.522,0,0,1,.624.129,1.455,1.455,0,0,1,.494.367,1.735,1.735,0,0,1,.33.562,2.107,2.107,0,0,1,.12.728,1.878,1.878,0,0,1-.369,1.219,1.392,1.392,0,0,1-1.136.452,2.69,2.69,0,0,1-.847-.144,3.215,3.215,0,0,1-.882-.481,1.294,1.294,0,0,1-.235.281.84.84,0,0,1-.255.15,1.1,1.1,0,0,1-.275.063c-.107.009-.206.014-.3.014H75.7a2.97,2.97,0,0,0-.579.058A1.647,1.647,0,0,0,74.58,95a1.17,1.17,0,0,0-.4.409,1.321,1.321,0,0,0-.156.673,1.46,1.46,0,0,0,.138.659,1.252,1.252,0,0,0,.379.455,1.608,1.608,0,0,0,.562.263,2.625,2.625,0,0,0,.677.086,5,5,0,0,0,.748-.059,3.408,3.408,0,0,0,.9-.3l.294.56a2.358,2.358,0,0,1-.53.285,3.759,3.759,0,0,1-.539.164,3.8,3.8,0,0,1-.481.081C76.017,98.3,75.9,98.305,75.8,98.305ZM91.233,92.14a.936.936,0,0,0-.686.329,3.218,3.218,0,0,0-.589,1.158,3.72,3.72,0,0,0,.655.343,1.787,1.787,0,0,0,.663.13.85.85,0,0,0,.6-.214.968.968,0,0,0,.226-.722,1.3,1.3,0,0,0-.057-.383,1.042,1.042,0,0,0-.169-.329.871.871,0,0,0-.272-.227A.782.782,0,0,0,91.233,92.14ZM70.522,96.96h-1.63v-.41h.4a.843.843,0,0,1-.124-.446.927.927,0,0,1,.061-.346.682.682,0,0,1,.17-.249.766.766,0,0,1,.245-.152.775.775,0,0,1,.282-.053,1.707,1.707,0,0,1,.262.017.352.352,0,0,1,.165.062V95.8a.932.932,0,0,0-.383-.08.369.369,0,0,0-.311.125.439.439,0,0,0-.1.275.427.427,0,0,0,.117.3.45.45,0,0,0,.346.124h.5v.409ZM95.331,96.6h0v-.74h.015a1.967,1.967,0,0,0,.667-.091.682.682,0,0,0,.366-.3,1.226,1.226,0,0,0,.141-.534c.016-.22.023-.485.023-.787V91.757h.721v1.265a1.338,1.338,0,0,0,.165.715.666.666,0,0,0,.61.265h18.528v-2.69h.731v3.429H98.038a.853.853,0,0,1-.489-.133.9.9,0,0,1-.294-.312,6.339,6.339,0,0,1-.08,1.083,1.653,1.653,0,0,1-.29.713,1.179,1.179,0,0,1-.583.392A3.3,3.3,0,0,1,95.331,96.6Zm-43.844,0h0v-.74H51.5a1.967,1.967,0,0,0,.667-.091.687.687,0,0,0,.366-.3,1.253,1.253,0,0,0,.142-.534c.014-.23.022-.5.022-.787V91.757h.723v1.265a1.332,1.332,0,0,0,.165.715.661.661,0,0,0,.609.265H67.449v-2.69h.73v3.429H54.194a.863.863,0,0,1-.49-.133.906.906,0,0,1-.293-.312,6.258,6.258,0,0,1-.08,1.083,1.643,1.643,0,0,1-.291.713,1.174,1.174,0,0,1-.582.392A3.3,3.3,0,0,1,51.487,96.6Zm24.53-.035a.451.451,0,0,1-.334-.139.476.476,0,0,1,0-.668.451.451,0,0,1,.334-.139.472.472,0,0,1,.473.472.464.464,0,0,1-.138.335A.456.456,0,0,1,76.018,96.568Zm40.763-.028a.472.472,0,0,1,0-.944.472.472,0,1,1,0,.944Zm-97.87,0a.472.472,0,1,1,.334-.806.472.472,0,0,1,0,.668A.457.457,0,0,1,18.911,96.54Zm75.733-1.8h-.73v-6.36h.73V94.74Zm-24.487,0h-.73v-6.36h.73V94.74Zm-19.355,0h-.731v-6.36H50.8V94.74Zm-1.631,0H46.49V94.1h.649a1.267,1.267,0,0,1-.294-.839,1.468,1.468,0,0,1,.112-.591,1.212,1.212,0,0,1,.3-.419A1.249,1.249,0,0,1,47.67,92a1.42,1.42,0,0,1,.485-.085,3.5,3.5,0,0,1,.445.023,1.351,1.351,0,0,1,.259.048v.7a1.609,1.609,0,0,0-.634-.116.849.849,0,0,0-.342.062.745.745,0,0,0-.231.164.634.634,0,0,0-.134.233.9.9,0,0,0-.041.262.854.854,0,0,0,.205.575.819.819,0,0,0,.651.237h.837v.64Zm-6.014,0h-.73v-6.36h.73V94.74Zm-1.976,0H23.1a.864.864,0,0,1-.555-.166.8.8,0,0,1-.282-.414.8.8,0,0,1-.512.472,3.2,3.2,0,0,1-.9.107h-.633a.887.887,0,0,1-.561-.166.785.785,0,0,1-.285-.414.8.8,0,0,1-.5.472,2.88,2.88,0,0,1-.842.107H3.8a2.31,2.31,0,0,1-.44-.041,1.054,1.054,0,0,1-.374-.145.928.928,0,0,1-.281-.274,1.024,1.024,0,0,1-.152-.439,2.755,2.755,0,0,1-.441.115A2.668,2.668,0,0,1,1.639,94a2.369,2.369,0,0,1-.5-.062,1.664,1.664,0,0,1-.534-.226,1.386,1.386,0,0,1-.432-.462A1.49,1.49,0,0,1,0,92.478a1.7,1.7,0,0,1,.169-.8,1.533,1.533,0,0,1,.436-.526,1.708,1.708,0,0,1,.592-.293,2.484,2.484,0,0,1,.646-.088H3.26v2.543a.909.909,0,0,0,.116.526c.077.1.25.155.516.155h.215a.024.024,0,0,1,.014,0,.025.025,0,0,0,.012,0H17.886a3.231,3.231,0,0,0,.366-.018.6.6,0,0,0,.254-.085.393.393,0,0,0,.151-.2.992.992,0,0,0,.049-.351V91.312h.732v1.71a2.459,2.459,0,0,0,.031.406.745.745,0,0,0,.12.307.612.612,0,0,0,.24.2.891.891,0,0,0,.384.072h.712a2.075,2.075,0,0,0,.285-.018.438.438,0,0,0,.209-.085.444.444,0,0,0,.134-.2,1.044,1.044,0,0,0,.049-.351V88.381h.73v4.641a1.23,1.23,0,0,0,.184.715A.66.66,0,0,0,23.1,94H33.332V88.381h.731v4.365A3.618,3.618,0,0,1,35.127,91.6a2.515,2.515,0,0,1,1.421-.406,1.729,1.729,0,0,1,1.35.542,2.184,2.184,0,0,1,.485,1.5V94H40.45V88.381h.731V94.74Zm-4.8-2.805a1.652,1.652,0,0,0-.793.2,2.78,2.78,0,0,0-.659.494,3.524,3.524,0,0,0-.512.663,4.633,4.633,0,0,0-.352.714h3.59v-.6a2.662,2.662,0,0,0-.062-.575,1.22,1.22,0,0,0-.214-.468,1.08,1.08,0,0,0-.4-.31A1.4,1.4,0,0,0,36.379,91.936ZM1.746,91.508a1.224,1.224,0,0,0-.731.217.79.79,0,0,0-.3.687.809.809,0,0,0,.236.6,1.055,1.055,0,0,0,.752.229,2.223,2.223,0,0,0,.424-.043,2.241,2.241,0,0,0,.4-.115V91.508Zm66.549-1.221a.47.47,0,1,1,.334-.137A.459.459,0,0,1,68.295,90.287Zm-1.157,0a.469.469,0,1,1,.334-.137A.459.459,0,0,1,67.137,90.287Zm-64.6-.676a.47.47,0,1,1,.334-.139A.454.454,0,0,1,2.539,89.611Zm-1.158,0a.473.473,0,1,1,0-.945.473.473,0,1,1,0,.945Zm66.353-.392a.472.472,0,0,1-.334-.806.474.474,0,0,1,.668,0,.472.472,0,0,1-.334.806Zm32.3-6.233a19.15,19.15,0,0,1-7.182-1.355,17.966,17.966,0,0,1-5.991-3.955,19.855,19.855,0,0,1-5.441-16.285c.9-8.693,5.953-15.047,13.522-17a19.3,19.3,0,0,1,4.807-.622,17.2,17.2,0,0,1,10.122,3.251,18.79,18.79,0,0,1,7.517,14.092c.065.922.048,1.884.032,2.813v.079c-.008.455-.016.926-.016,1.424v.388H90.276a8.628,8.628,0,0,0,6.033,8.727,11.687,11.687,0,0,0,3.92.711,10.24,10.24,0,0,0,8.831-5.311l.183-.3,7.208,3.411-.22.368c-3.409,5.7-7.938,8.782-13.846,9.428A21.761,21.761,0,0,1,100.035,82.986Zm-59.989-.052H30.568V43.9h9.446l.032,7.975V82.933Zm-30.149,0H.146V43.9H20.622v9.842H9.9V82.933ZM46.459,61.223h0A1.709,1.709,0,0,1,45.4,58.168L62.811,44.2a1.709,1.709,0,1,1,2.11,2.689L47.512,60.858A1.69,1.69,0,0,1,46.459,61.223ZM93.83,38.695H64.023v-8L79.9,9.736H64.955V0H93.83V8L77.749,28.96H93.83v9.733Zm-58.293,0A6.811,6.811,0,1,1,40.362,36.7,6.778,6.778,0,0,1,35.537,38.695Z" transform="translate(0 -0.001)"/></g></g></g></svg>