<svg xmlns="http://www.w3.org/2000/svg" width="2014.348" height="613.371" viewBox="0 0 2014.348 613.371">
  <g id="Group_89" data-name="Group 89" transform="matrix(0.999, -0.052, 0.052, 0.999, -5.129, 106.595)">
    <path id="Path_118" data-name="Path 118" d="M1962.774.949C1854.964-9.705,1750.981,36.9,1685.347,90.082S1503.2,208.924,1400.925,244.3c-112.173,38.8-237.458,39.453-350.035,1.814-88-29.418-172.044-71.847-259.064-103.989C670.2,97.206,466.586,37.987-37.027,156.457" transform="translate(32.735 231.759)" fill="none" stroke="#ae95da" stroke-miterlimit="10" stroke-width="3.175"/>
    <path id="Path_119" data-name="Path 119" d="M1986.577,375c-83.548-57.607-227.675-23.054-341.2,8.607s-225.058,72.956-342.733,86.119-246.418-6.108-333.008-81.405c-21.7-18.869-40.29-40.823-63.465-58.105S853.393,300.38,824.091,304.9c-27.333,4.216-49.405,22.173-72.5,36.414s-52.748,25.392-77.912,14.6c-35.7-15.3-40.362-64.369-74.144-83.057-32.623-18.044-74.574,1.175-102.6,24.983s-53.74,53.888-90.8,61.51c-44.682,9.186-89.966-19.279-113.9-55.572s-35.3-78.643-44.048-120.435C231.4,103.179,134.129,2.937,0,0" transform="translate(5.292 -0.718)" fill="none" stroke="#ffcb5a" stroke-miterlimit="10" stroke-width="3.175"/>
  </g>
</svg>
