<svg xmlns="http://www.w3.org/2000/svg" width="157.471" height="61.992" viewBox="0 0 157.471 61.992">
  <g id="Group_4" data-name="Group 4" transform="translate(-1319.539 -317.419)">
   
      <path id="Path_2" data-name="Path 2" d="M1374.031,328.464a47.054,47.054,0,0,0-3.366,11.957,51.346,51.346,0,0,0,1.327,21.91,27.179,27.179,0,0,0,7.3,13.281,13.493,13.493,0,0,0,9.46,3.8c.113,0,.227,0,.341,0a14.527,14.527,0,0,0,9.947-4.319,14.153,14.153,0,0,0,.526-19.745,24.9,24.9,0,0,0-12.62-6.927,24.9,24.9,0,0,0,12.62-6.927,14.153,14.153,0,0,0-.526-19.745,14.527,14.527,0,0,0-9.947-4.319,13.508,13.508,0,0,0-9.8,3.8A25.84,25.84,0,0,0,1374.031,328.464Z" transform="translate(-1347.526 -317.419)" fill="#ee3a4e"/>
      <circle id="Ellipse_2" data-name="Ellipse 2" cx="9.115" cy="9.115" r="9.115" transform="translate(0 21.881)" fill="#ee3a4e"/>
    </g>
  </g>
</svg>
