<svg xmlns="http://www.w3.org/2000/svg" width="2089.808" height="353.456" viewBox="0 0 2089.808 353.456">
  <g id="Group_99" data-name="Group 99" transform="translate(58.264 -6724.831)">
    <path id="Path_5" data-name="Path 5" d="M2082.736,402.751c-108.8-7.714-294.228,24.9-388.594,64.083s-183.825,86.043-287.036,111.656c-113.2,28.094-239.64,28.565-353.253,1.313-88.81-21.3-173.626-52.018-261.445-75.29-122.74-32.522-290.86-80.345-799.1,5.429" transform="translate(-51.305 6368.784)" fill="none" stroke="#a5c5ed" stroke-miterlimit="10" stroke-width="3.175"/>
    <path id="Path_6" data-name="Path 6" d="M1159.758,599.307c0,40.926,26.375,74.1,58.913,74.1s58.914-33.178,58.914-74.1-26.375-74.1-58.914-74.1-58.913,33.176-58.913,74.1" transform="translate(-21.113 6371.983)" fill="#fff"/>
    <path id="Path_11" data-name="Path 11" d="M2070,617.458c-111.768-19.143-328.531,1.562-438.67,24.977s-218.336,53.954-332.495,63.689-239.057-4.517-323.061-60.2c-21.048-13.954-39.086-30.191-61.569-42.971s-51.2-22.063-79.623-18.72c-26.517,3.118-47.929,16.4-70.339,26.929s-51.172,18.779-75.585,10.8c-34.631-11.319-39.156-47.6-71.93-61.425-31.648-13.345-72.346.869-99.533,18.476s-52.134,39.853-88.085,45.49c-43.348,6.793-87.279-14.258-110.495-41.1s-34.243-58.16-42.732-89.067C259.6,435.048,165.229,360.915,35.107,358.743" transform="translate(-50.223 6367.675)" fill="none" stroke="#ffb1b9" stroke-miterlimit="10" stroke-width="3.175"/>
    <path id="Path_12" data-name="Path 12" d="M1247.052,596.245c8.077,1.921,16.906,5.713,23.755,13.039a26.642,26.642,0,0,1-.99,37.167,27.372,27.372,0,0,1-18.724,8.13,25.434,25.434,0,0,1-18.449-7.145,47.009,47.009,0,0,1-9.188-12.536v.386l-.714-1.49a88.265,88.265,0,0,1-6.338-22.5,96.686,96.686,0,0,1,2.5-41.242c1.991-8.177,5.952-17.457,13.742-25a25.408,25.408,0,0,1,17.808-7.155c.212,0,.427.007.641.01a27.357,27.357,0,0,1,18.724,8.129,26.643,26.643,0,0,1,.99,37.168c-6.85,7.326-15.679,11.113-23.755,13.038" transform="translate(-19.677 6372.312)" fill="#f93549"/>
    <path id="Path_13" data-name="Path 13" d="M1191.08,612.365a17.158,17.158,0,1,1,17.156-17.162,17.18,17.18,0,0,1-17.156,17.162" transform="translate(-20.747 6373.351)" fill="#f93549"/>
  </g>
</svg>
