<svg xmlns="http://www.w3.org/2000/svg" width="1920.571" height="354.456" viewBox="0 0 1920.571 354.456">
  <g id="Group_99" data-name="Group 99" transform="translate(58.286 -6723.831)">
    <path id="Path_5" data-name="Path 5" d="M1913.3,402.751c-99.978-7.714-270.369,24.9-357.083,64.083S1387.3,552.876,1292.461,578.49c-104.025,28.094-220.208,28.565-324.608,1.313-81.608-21.3-159.546-52.018-240.245-75.29-112.787-32.522-267.275-80.345-734.3,5.429" transform="translate(-51.305 6368.784)" fill="none" stroke="#a5c5ed" stroke-miterlimit="10" stroke-width="3.175"/>
    <path id="Path_6" data-name="Path 6" d="M1159.758,599.307c0,40.926,26.375,74.1,58.913,74.1s58.914-33.178,58.914-74.1-26.375-74.1-58.914-74.1-58.913,33.176-58.913,74.1" transform="translate(-123.948 6371.983)" fill="#fff"/>
    <path id="Path_11" data-name="Path 11" d="M1955.107,618.2c-105.457-19.2-309.982,1.567-413.9,25.048s-206.008,54.108-313.722,63.871-225.56-4.53-304.82-60.375c-19.86-13.994-36.879-30.277-58.093-43.094s-48.306-22.126-75.127-18.774c-25.02,3.127-45.223,16.445-66.367,27.006s-48.283,18.832-71.317,10.831c-32.675-11.351-36.945-47.74-67.869-61.6-29.862-13.383-68.262.872-93.913,18.529s-49.191,39.966-83.112,45.62c-40.9,6.813-82.351-14.3-104.256-41.215s-32.31-58.326-40.319-89.321c-15.364-59.457-104.406-133.8-227.181-135.98" transform="translate(-93.107 6366.675)" fill="none" stroke="#ffb1b9" stroke-miterlimit="10" stroke-width="3.175"/>
    <path id="Path_12" data-name="Path 12" d="M1247.052,596.245c8.077,1.921,16.906,5.713,23.755,13.039a26.642,26.642,0,0,1-.99,37.167,27.372,27.372,0,0,1-18.724,8.13,25.434,25.434,0,0,1-18.449-7.145,47.009,47.009,0,0,1-9.188-12.536v.386l-.714-1.49a88.265,88.265,0,0,1-6.338-22.5,96.686,96.686,0,0,1,2.5-41.242c1.991-8.177,5.952-17.457,13.742-25a25.408,25.408,0,0,1,17.808-7.155c.212,0,.427.007.641.01a27.357,27.357,0,0,1,18.724,8.129,26.643,26.643,0,0,1,.99,37.168c-6.85,7.326-15.679,11.113-23.755,13.038" transform="translate(-124.47 6372.312)" fill="#f93549"/>
    <path id="Path_13" data-name="Path 13" d="M1191.08,612.365a17.158,17.158,0,1,1,17.156-17.162,17.18,17.18,0,0,1-17.156,17.162" transform="translate(-120.6 6373.351)" fill="#f93549"/>
  </g>
</svg>
