<svg xmlns="http://www.w3.org/2000/svg" width="92.622" height="67.34" viewBox="0 0 92.622 67.34">
  <g id="Group_1837" data-name="Group 1837" transform="translate(-833.771 -790.106)">
    <path id="Path_4303" data-name="Path 4303" d="M72.252,5.719c16.252,8.1,13.833,27.874,0,34.5s-41.01-21.4-52.6-6.889S-10.287,17.678,7.246,7.816,56-2.382,72.252,5.719Z" transform="translate(926.392 828.87) rotate(160)" fill="#f5acb5"/>
    <g id="Group_1812" data-name="Group 1812" transform="translate(0 -118)">
      <g id="Rectangle_1473" data-name="Rectangle 1473" transform="translate(851.091 959)" fill="none" stroke="#494848" stroke-width="2">
        <rect width="16" height="12" stroke="none"/>
        <rect x="1" y="1" width="14" height="10" fill="none"/>
      </g>
      <g id="Rectangle_1474" data-name="Rectangle 1474" transform="translate(873.091 941)" fill="none" stroke="#494848" stroke-width="2">
        <rect width="16" height="30" stroke="none"/>
        <rect x="1" y="1" width="14" height="28" fill="none"/>
      </g>
      <g id="Rectangle_1475" data-name="Rectangle 1475" transform="translate(895.091 922)" fill="none" stroke="#494848" stroke-width="2">
        <rect width="16" height="49" stroke="none"/>
        <rect x="1" y="1" width="14" height="47" fill="none"/>
      </g>
      <path id="Path_4277" data-name="Path 4277" d="M5278.91,1450.132s33.32-7.16,44.09-34.05" transform="translate(-4427.909 -505.841)" fill="none" stroke="#494848" stroke-linecap="round" stroke-width="2"/>
      <path id="Path_4278" data-name="Path 4278" d="M5317.109,1411.271l6.2-1.822,2.647,5.695" transform="translate(-4427.909 -500)" fill="none" stroke="#494848" stroke-linecap="round" stroke-width="2"/>
    </g>
    <path id="Path_4304" data-name="Path 4304" d="M4993.328,1352.386c-2.5-1.031-7.823-5.12-1.337-7.338s9.786,2.682,8.883,5.735S4995.826,1353.418,4993.328,1352.386Z" transform="translate(-4124 -545)" fill="#f5acb5"/>
  </g>
</svg>
