<?xml version="1.0" encoding="utf-8"?>
<!-- Generator: Adobe Illustrator 19.0.0, SVG Export Plug-In . SVG Version: 6.00 Build 0)  -->
<svg version="1.1" id="Layer_1" xmlns="http://www.w3.org/2000/svg" xmlns:xlink="http://www.w3.org/1999/xlink" x="0px" y="0px"
	 viewBox="46 -41.5 108.9 96.5" style="enable-background:new 46 -41.5 108.9 96.5;" xml:space="preserve">
<style type="text/css">
	.st0{fill:none;}
	.st1{fill:#992222;}
</style>
<g>
	<path class="st0" d="M65.8,5.2c-0.2,0-0.3,0.2-0.3,0.3c0,0.2,0.1,0.3,0.3,0.3l4.1-0.1c0,0,0.1,0,0.2,0c0.3,0,0.6,0.2,0.8,0.4
		c0.2,0.2,0.3,0.6,0.3,0.9c0,0.3-0.2,0.7-0.4,0.9c-0.3,0.2-0.6,0.3-0.9,0.4l-4.1,0.1c-0.2,0-0.3,0-0.3,0.1c-0.1,0.1-0.1,0.1-0.1,0.2
		c0,0.2,0.1,0.3,0.3,0.3L70,8.8c0.3,0,0.6,0.2,0.8,0.4c0.2,0.2,0.3,0.5,0.3,0.9c0,0.4-0.2,0.7-0.4,0.9c-0.3,0.2-0.6,0.3-0.9,0.3
		L66,11.4c-0.2,0-0.3,0.2-0.3,0.3c0,0.2,0.1,0.3,0.3,0.3l7.8-0.2V5.2L65.8,5.2z"/>
	<polygon class="st0" points="74.7,11.9 92.5,12.1 92.5,5.2 74.7,5.1 	"/>
	<path class="st0" d="M124.4,6.5c-0.2-3.3-0.6-12-0.6-21.8l-2-6l0-0.2c0.9-2.8,1.6-7.7-2.9-9.6c-1.8-0.8-3.8-0.8-5.5,0.1
		c-1.7,0.9-2.9,2.6-3.5,5l-0.2,1.3c0,0,0,0.3,0.2,0.6c0.2,0.2,0.5,0.3,1,0.3c0.1-1.4,0.9-1.9,1.6-1.9c0.7,0,1.3,0.5,1.4,1.2
		c0.1,0.5,0,0.9-0.3,1.3c-0.4,0.4-0.9,0.5-0.9,0.5h-0.9l-0.1,2l2.3,6.6l-11.3-0.1c-0.1,0-3.7-0.3-6.4,2.1c-1.8,1.6-2.8,4.1-2.9,7.4
		v8.9l9.8,0l3.9,12.6l-26.9,0l-9.8,24.7h9.3L74.5,54h9.3l10.9-26.1h23.3c0.1,0,5,0.3,8.2-2.5c1.7-1.6,2.7-3.8,2.8-6.6l0-1.6
		C126.2,15,124.7,11.4,124.4,6.5z"/>
	<path class="st0" d="M140.6-19.4c5.8,0,10.5-4.7,10.5-10.5s-4.7-10.5-10.5-10.5s-10.5,4.7-10.5,10.5S134.8-19.4,140.6-19.4z
		 M145.7-28.2c0.4-0.4,0.9-0.7,1.5-0.7c1.1,0,2,0.9,2,2h-1c0-0.5-0.4-1-1-1s-1,0.4-1,1h0v0l-0.5,0h-0.5c0,0,0,0,0,0l0,0
		c0-0.6-0.5-1-1-1c0,0,0,0,0,0c-0.5,0-1,0.5-1,1l-1,0c0-1.1,0.8-2,1.9-2.1C144.7-28.9,145.3-28.6,145.7-28.2z M136.3-33.8
		c1,0,1.8,0.5,2.3,1.2c0.1-0.1,0.2-0.3,0.3-0.4c0.5-0.5,1.2-0.8,2-0.8c1.5,0,2.7,1.2,2.7,2.7l-1,0c0-1-0.8-1.7-1.7-1.7
		c-0.4,0-0.9,0.2-1.3,0.5c-0.3,0.3-0.5,0.8-0.5,1.2l-0.5,0h-0.5c0-1-0.8-1.8-1.8-1.8s-1.8,0.8-1.8,1.8h-1
		C133.5-32.5,134.8-33.8,136.3-33.8z"/>
	<path class="st0" d="M147.2,3.1l-0.2,7.6c0,0.1,0,0.1,0.1,0.2c0,0.1,0.1,0.1,0.2,0.1c0.2,0,0.3-0.1,0.3-0.3l0.1-3.9
		c0-0.7,0.5-1.3,1.2-1.3c0.7,0,1.3,0.5,1.3,1.2l0,0l0,0.1l-0.1,4.1c0,0.1,0,0.1,0.1,0.2c0,0,0.1,0.1,0.2,0.1c0,0,0,0,0,0
		c0.2,0,0.3-0.1,0.3-0.4l0.1-4.1c0-0.3,0.1-0.6,0.4-0.9s0.6-0.4,0.9-0.4c0.3,0,0.6,0.1,0.9,0.3c0.2,0.2,0.4,0.5,0.4,0.8
		c0,0.1,0,0.2,0,0.3l-0.1,4.1c0,0.1,0.1,0.3,0.3,0.3c0.2,0,0.3-0.1,0.3-0.3l0-7.7H147.2z"/>
	<path class="st0" d="M113-24.4c0-0.2-0.2-0.3-0.4-0.3c0,0,0,0,0,0c-0.3,0-0.5,0.3-0.6,0.9h0.8c0,0,0.1,0,0.2-0.1
		C113-24,113-24.2,113-24.4z"/>
	<path class="st0" d="M147.2,2.1h6.6v-16.8l-28.9-0.1c0,9.5,0.4,18,0.6,21.3c0.2,4.8,1.7,8.2,4.4,10.2h0.1v0.1
		c3.6,2.6,8.5,1.8,9.8,1.5l-0.3-26.6l7.8,0.1V2.1z"/>
	<path class="st1" d="M154.8,2.4v-18l-30.1-0.1l-1.9-5.5c1.6-5.3,0.3-9.1-3.5-10.7c-2.1-0.9-4.4-0.9-6.3,0.1c-1.4,0.7-3.2,2.3-4,5.7
		l-0.3,1.3c0,0.1-0.1,0.8,0.4,1.4c0.4,0.4,1,0.7,1.7,0.7l-0.1,2.2l1.9,5.5l-9.8-0.1c-0.2,0-4.1-0.3-7.1,2.4c-2,1.8-3.1,4.6-3.3,8.2
		v8.9L73.7,4.1v0.1l-7.9,0c-0.7,0-1.3,0.6-1.3,1.4c0,0.3,0.1,0.7,0.4,0.9c0.2,0.2,0.6,0.4,0.9,0.3L70,6.7c0.1,0,0.2,0.1,0.2,0.3
		c0,0.1,0,0.2-0.1,0.2c-0.1,0.1-0.1,0.1-0.2,0.1l-4.1,0.1c-0.5,0-0.9,0.2-1,0.4c-0.3,0.4-0.3,0.8-0.3,0.9c0,0.7,0.6,1.2,1.3,1.2
		L70,9.8c0.1,0,0.1,0,0.2,0.1s0.1,0.1,0.1,0.2c0,0.1,0,0.1-0.1,0.2c-0.1,0-0.1,0.1-0.2,0.1l-3.9,0.1c-0.7,0-1.3,0.6-1.3,1.4
		c0,0.7,0.6,1.2,1.3,1.2c0,0,0,0,0,0l7.7-0.2v0.1l19.8,0.1V5.2l9.1,0l3.3,10.6l-58.7-0.1L51-3.9h4.3l1.4,10.1l1-0.1l-3.1-22.5
		l-1,0.1l1.6,11.4h-5L46,16.7l33.3,0L69,42.4h9.3L72.9,55h11.5l10.9-26.1l22.6,0c0.2,0,5.3,0.3,8.9-2.8c2-1.7,3-4.2,3.2-7.3v-0.9
		c2.2,1.3,4.5,1.7,6.5,1.7c2.2,0,3.8-0.4,4-0.5l0.4-0.1l-0.3-26.4l5.8,0.1v9.9l0,0l-0.2,8.2c0,0.3,0.1,0.7,0.3,0.9s0.5,0.4,0.9,0.4
		c0.7,0,1.3-0.6,1.3-1.3l0.1-4c0-0.1,0.1-0.3,0.3-0.3c0.2,0,0.2,0.1,0.2,0.3l-0.1,4.1c0,0.3,0.1,0.7,0.3,0.9
		c0.2,0.2,0.5,0.4,0.9,0.4c0,0,0,0,0,0c0.1,0,0.5,0,0.8-0.3c0.2-0.2,0.4-0.5,0.4-1l0.1-4.1c0-0.1,0-0.2,0.1-0.2
		c0.1-0.1,0.1-0.1,0.3-0.1c0.1,0,0.2,0.1,0.2,0.3l-0.1,4.1c0,0.7,0.5,1.3,1.3,1.3c0.7,0,1.3-0.6,1.3-1.3l0-8.4L154.8,2.4z M65.9,12
		c-0.2,0-0.3-0.1-0.3-0.3c0-0.2,0.1-0.3,0.3-0.3l3.9-0.1c0.3,0,0.7-0.1,0.9-0.3c0.3-0.2,0.4-0.5,0.4-0.9c0-0.3-0.1-0.6-0.3-0.9
		C70.6,9,70.3,8.8,70,8.8l-4.3,0.1c-0.1,0-0.3-0.1-0.3-0.3c0,0,0-0.1,0.1-0.2c0.1-0.1,0.2-0.1,0.3-0.1l4.1-0.1
		c0.4,0,0.7-0.1,0.9-0.4c0.3-0.2,0.4-0.6,0.4-0.9c0-0.3-0.1-0.6-0.3-0.9c-0.2-0.2-0.5-0.4-0.8-0.4c-0.1,0-0.2,0-0.2,0l-4.1,0.1
		c-0.2,0-0.3-0.1-0.3-0.3c0-0.2,0.1-0.3,0.3-0.3l7.8,0v6.7L65.9,12z M92.5,12.1l-17.8-0.1V5.1l17.8,0.1V12.1z M126.1,25.3
		c-3.2,2.9-8.1,2.6-8.2,2.5H94.6L83.7,54h-9.3l5.4-12.6h-9.3l9.8-24.7l26.9,0l-3.9-12.6l-9.8,0v-8.9c0.1-3.3,1.1-5.8,2.9-7.4
		c2.7-2.4,6.4-2.1,6.4-2.1l11.3,0.1l-2.3-6.6l0.1-2h0.9c0.1,0,0.6,0,0.9-0.5c0.3-0.3,0.4-0.7,0.3-1.3c-0.1-0.7-0.7-1.2-1.4-1.2
		c-0.7,0-1.5,0.5-1.6,1.9c-0.5,0-0.9-0.1-1-0.3c-0.2-0.2-0.2-0.6-0.2-0.6L110-26c0.5-2.4,1.7-4.1,3.5-5c1.6-0.8,3.6-0.8,5.5-0.1
		c4.5,1.9,3.8,6.9,2.9,9.6l0,0.2l2,6c0,9.7,0.4,18.5,0.6,21.8c0.3,4.9,1.8,8.4,4.5,10.6l0,1.6C128.8,21.6,127.8,23.8,126.1,25.3z
		 M112-23.8c0.1-0.5,0.3-0.9,0.6-0.9c0,0,0,0,0,0c0.2,0,0.4,0.1,0.4,0.3c0,0.2,0,0.4-0.1,0.5c-0.1,0.1-0.2,0.1-0.2,0.1H112z
		 M139.4-8.4l0.3,26.6c-1.4,0.3-6.2,1.1-9.8-1.5v-0.1h-0.1c-2.7-2-4.2-5.4-4.4-10.2c-0.2-3.3-0.6-11.8-0.6-21.3l28.9,0.1V2.1h-6.6
		V-8.3L139.4-8.4z M153.5,11.1c-0.1,0-0.3-0.1-0.3-0.3l0.1-4.1c0-0.1,0-0.2,0-0.3c0-0.3-0.2-0.6-0.4-0.8c-0.2-0.2-0.6-0.3-0.9-0.3
		c-0.3,0-0.7,0.2-0.9,0.4s-0.4,0.6-0.4,0.9l-0.1,4.1c0,0.3-0.1,0.4-0.3,0.4c0,0,0,0,0,0c-0.1,0-0.2-0.1-0.2-0.1
		c0-0.1-0.1-0.1-0.1-0.2l0.1-4.1l0-0.1l0,0c0-0.7-0.6-1.2-1.3-1.2c-0.7,0-1.2,0.6-1.2,1.3l-0.1,3.9c0,0.2-0.2,0.3-0.3,0.3
		c-0.1,0-0.1,0-0.2-0.1c0-0.1-0.1-0.1-0.1-0.2l0.2-7.6h6.7l0,7.7C153.8,11,153.7,11.1,153.5,11.1z"/>
	<path class="st1" d="M140.6-18.4c6.3,0,11.5-5.2,11.5-11.5c0-6.3-5.2-11.5-11.5-11.5s-11.5,5.2-11.5,11.5
		C129.1-23.6,134.3-18.4,140.6-18.4z M140.6-40.5c5.8,0,10.5,4.7,10.5,10.5s-4.7,10.5-10.5,10.5s-10.5-4.7-10.5-10.5
		S134.8-40.5,140.6-40.5z"/>
	<path class="st1" d="M136.3-32.8c1,0,1.8,0.8,1.8,1.8h0.5l0.5,0c0-0.5,0.2-0.9,0.5-1.2c0.3-0.3,0.8-0.5,1.3-0.5
		c1,0,1.7,0.8,1.7,1.7l1,0c0-1.5-1.2-2.7-2.7-2.7c-0.8,0-1.4,0.3-2,0.8c-0.1,0.1-0.2,0.3-0.3,0.4c-0.5-0.7-1.3-1.2-2.3-1.2
		c-1.5,0-2.8,1.2-2.8,2.8h1C134.5-32,135.3-32.8,136.3-32.8z"/>
	<path class="st1" d="M142.2-26.8l1,0c0-0.5,0.4-1,1-1c0,0,0,0,0,0c0.5,0,1,0.4,1,1l0,0c0,0,0,0,0,0h0.5l0.5,0v0h0c0-0.5,0.4-1,1-1
		s1,0.4,1,1h1c0-1.1-0.9-2-2-2c-0.6,0-1.1,0.3-1.5,0.7c-0.4-0.4-0.9-0.7-1.6-0.7C143-28.9,142.1-27.9,142.2-26.8z"/>
</g>
</svg>
