<svg xmlns="http://www.w3.org/2000/svg" width="29" height="29" viewBox="0 0 29 29">
  <g id="iconfinder_9_940989" transform="translate(-0.001)">
    <path id="Path_4186" data-name="Path 4186" d="M15.5,1A14.5,14.5,0,1,0,30,15.5,14.465,14.465,0,0,0,15.5,1Z" transform="translate(-1 -1)" fill="#0e76a8"/>
    <g id="in" transform="translate(7.431 7.311)">
      <path id="n_1_" d="M21.56,21.1H24.4v1.45h0a3.2,3.2,0,0,1,2.84-1.45c3.021,0,3.323,1.752,3.323,4.29v5.256h-2.84V25.873c0-1.087.06-2.356-1.45-2.356-1.933,0-1.933,1.148-1.933,2.356v4.773H21.5l.06-9.546Z" transform="translate(-16.546 -16.267)" fill="#fff"/>
      <rect id="_x7C__1_" width="2.84" height="9.546" transform="translate(0.302 4.833)" fill="#fff"/>
      <ellipse id="_x28____x29__1_" cx="1.692" cy="1.692" rx="1.692" ry="1.692" fill="#fff"/>
    </g>
  </g>
</svg>
