<svg xmlns="http://www.w3.org/2000/svg" xmlns:xlink="http://www.w3.org/1999/xlink" width="78" height="74" viewBox="0 0 78 74"><defs><linearGradient id="a" x1="0.552" y1="-0.275" x2="0.5" y2="1" gradientUnits="objectBoundingBox"><stop offset="0" stop-color="#fff"/><stop offset="1" stop-color="#f7f7f7"/></linearGradient></defs><g transform="translate(-15 -112)"><g transform="translate(15 112)" stroke="#f2f2f2" stroke-width="1" fill="url(#a)"><rect width="78" height="74" rx="7" stroke="none"/><rect x="0.5" y="0.5" width="77" height="73" rx="6.5" fill="none"/></g><g transform="translate(20.54 120.246)"><path d="M514.649,343.5l2.889,12.3s-8.948,1.491-10.253-5.872" transform="translate(-461.985 -315.497)" fill="none" stroke="#ee3a4e" stroke-miterlimit="10" stroke-width="1"/><path d="M198.2,358.356c-1.957,9.507-14.914,7.364-14.914,7.364l6.609-23.478" transform="translate(-183.285 -314.414)" fill="none" stroke="#ee3a4e" stroke-miterlimit="10" stroke-width="1"/><ellipse cx="18.805" cy="14.401" rx="18.805" ry="14.401" transform="translate(11.814 26.232)" fill="none" stroke="#ee3a4e" stroke-miterlimit="10" stroke-width="1"/><path d="M260.836,149.476c.093-1.328,1.435-1.276,1.538-.559a.642.642,0,0,1-.629.816,17.407,17.407,0,0,1-1.911.047c-.792-.023-.326-1.585-.326-1.585s.932-5.5,6.711-4.94c4.283.414,5.872,5.22,3.449,8.946-.639.983-.373,2.891-.373,3.078l5.406-1.025,4.194,11.651-22.288,18.844a.682.682,0,0,1-.961-.037h0a.682.682,0,0,1,.037-.961l2.449-2.268a.622.622,0,0,0,.062-.934h0a.637.637,0,0,0-.936-.01l-2.972,2.752a.682.682,0,0,1-.961-.037h0a.625.625,0,0,1,.1-.968l2.936-2.719a.643.643,0,0,0,.049-.95.626.626,0,0,0-.948-.021l-2.972,2.752a.682.682,0,0,1-.961-.037h0a.682.682,0,0,1,.037-.961l2.225-2.061a.67.67,0,0,0,.03-.97.626.626,0,0,0-.948-.021l-2.225,2.061-8.953,7.8h-11.64l-4.1-20.133,7.923-1.771a9.141,9.141,0,0,0-.186-3.822c-1.07-3.479-.885-7.131,2.7-8.669,2.976-1.275,6.991-.373,8.109,4.567l.21,1.1s.21,1.282-1.561,1.258h-1.4s-.757-.023-.618-.967c.122-.822,1.573-1.014,1.713.594l.163,2.587-1.119,2.8,4.66.187s5.638-.214,6.922,4.478" transform="translate(-219.987 -143.214)" fill="none" stroke="#ee3a4e" stroke-miterlimit="10" stroke-width="1"/><path d="M393.809,209.981v-2c-.559-12.677,9.135-12.257,9.135-12.257h2.7l-.746-3.588.28-1.631" transform="translate(-364.354 -183.889)" fill="none" stroke="#ee3a4e" stroke-miterlimit="10" stroke-width="1"/><path d="M608.188,348.241a3.565,3.565,0,1,1-7.131,0Z" transform="translate(-542.647 -319.575)" fill="none" stroke="#ee3a4e" stroke-miterlimit="10" stroke-width="1"/><circle cx="0.979" cy="0.979" r="0.979" transform="translate(65.611 28.666)" fill="none" stroke="#ee3a4e" stroke-miterlimit="10" stroke-width="1"/><g transform="translate(61.277 20.452)"><path d="M621.557,295.853c0-1.06.559-1.06.559-2.12s-.559-1.06-.559-2.121.559-1.06.559-2.121" transform="translate(-621.557 -289.491)" fill="none" stroke="#ee3a4e" stroke-miterlimit="10" stroke-width="1"/></g><g transform="translate(62.815 20.452)"><path d="M632.557,295.853c0-1.06.559-1.06.559-2.12s-.559-1.06-.559-2.121.559-1.06.559-2.121" transform="translate(-632.557 -289.491)" fill="none" stroke="#ee3a4e" stroke-miterlimit="10" stroke-width="1"/></g></g></g></svg>