<svg xmlns="http://www.w3.org/2000/svg" xmlns:xlink="http://www.w3.org/1999/xlink" width="78" height="74" viewBox="0 0 78 74"><defs><linearGradient id="a" x1="0.552" y1="-0.275" x2="0.5" y2="1" gradientUnits="objectBoundingBox"><stop offset="0" stop-color="#fff"/><stop offset="1" stop-color="#f7f7f7"/></linearGradient></defs><g transform="translate(-15 -112)"><g transform="translate(15 112)" stroke="#f2f2f2" stroke-width="1" fill="url(#a)"><rect width="78" height="74" rx="7" stroke="none"/><rect x="0.5" y="0.5" width="77" height="73" rx="6.5" fill="none"/></g><g transform="translate(21.112 120.911)"><path d="M370.007,256.252c.141-1.641,1.8-1.55,1.912-.662a.794.794,0,0,1-.794,1,21.519,21.519,0,0,1-2.363.021c-.979-.044-.373-1.965-.373-1.965s1.259-6.781,8.394-5.978c5.288.6,7.159,6.568,4.09,11.128-.81,1.2.288,3.342.285,3.572" transform="translate(-345.579 -238.452)" fill="none" stroke="#eb7a24" stroke-miterlimit="10" stroke-width="1"/><path d="M264.265,220.995l-6.6-.02L257.4,203.14l-.025-6.177a.614.614,0,0,0-.6-.593h0a.56.56,0,0,0-.573.575l.079,3.031a.516.516,0,0,1-.555.576.579.579,0,0,1-.585-.594l-.078-2.988c-.017-.669-.568-.635-.568-.635h0a.56.56,0,0,0-.573.574l.079,3.031a.524.524,0,0,1-.541.575h0a.559.559,0,0,1-.567-.593l-.064-2.867a.614.614,0,0,0-.6-.593h0a.56.56,0,0,0-.573.574l.124,29.711h12.483" transform="translate(-251.658 -196.333)" fill="none" stroke="#eb7a24" stroke-miterlimit="10" stroke-width="1"/><path d="M353.1,290.251l-.377,2.011.852,4.451-6.306-.02" transform="translate(-328.709 -272.02)" fill="none" stroke="#eb7a24" stroke-miterlimit="10" stroke-width="1"/><path d="M505.6,329" transform="translate(-456.306 -303.246)" fill="none" stroke="#eb7a24" stroke-miterlimit="10" stroke-width="1"/><path d="M434.823,305.421c.141-1.641,1.8-1.55,1.912-.662a.794.794,0,0,1-.794,1,21.511,21.511,0,0,1-2.363.021c-.979-.044-.372-1.965-.372-1.965s1.259-6.781,8.394-5.978c5.287.6,7.159,6.568,4.09,11.128-.81,1.2-.517,3.568-.521,3.8,0,0,5.112.194,7.341.261,5.836.175,10.094,3.072,9.512,11.419l-.158,13.362H448.274l-9.9-20.383" transform="translate(-397.813 -278.076)" fill="none" stroke="#eb7a24" stroke-miterlimit="10" stroke-width="1"/><path d="M340.866,263.733l-.377,2.011.852,4.451-18.859-.053-.266-17.835-.025-6.177a.614.614,0,0,0-.6-.593h0a.56.56,0,0,0-.573.574l.079,3.031a.516.516,0,0,1-.555.576.579.579,0,0,1-.585-.594l-.078-2.988c-.017-.669-.568-.635-.568-.635h0a.56.56,0,0,0-.573.574l.079,3.031a.524.524,0,0,1-.541.575h0a.559.559,0,0,1-.567-.593l-.063-2.867a.614.614,0,0,0-.6-.593h0a.56.56,0,0,0-.573.574l.124,29.711h15.783l3.918,10.953" transform="translate(-303.892 -235.957)" fill="none" stroke="#eb7a24" stroke-miterlimit="10" stroke-width="1"/></g></g></svg>