<svg xmlns="http://www.w3.org/2000/svg" xmlns:xlink="http://www.w3.org/1999/xlink" width="365.025" height="285.989" viewBox="0 0 365.025 285.989"><defs><clipPath id="a"><rect width="43.567" height="78.137" transform="translate(0 0.226)" fill="#fff" stroke="#707070" stroke-width="1"/></clipPath></defs><g transform="translate(-1181.975 -172.25)"><g transform="translate(1200.274 423.5) rotate(-90)" clip-path="url(#a)"><circle cx="35.694" cy="35.694" r="35.694" transform="translate(9.403 4.749)" fill="#ac92c3"/></g><g transform="translate(1182.883 173)"><path d="M4140.147,326.881" transform="translate(-3950.539 -184.319)" fill="none" stroke="#5c2c80" stroke-miterlimit="10" stroke-width="1.5"/><path d="M4266.551,255.256v31.063h22.507V233.336l-89.167-.391c0,25.827.937,50.208,1.707,65.023,2.507,48.2,45.65,36.039,45.65,36.039l-.937-78.987Z" transform="translate(-3968.264 -156.45)" fill="none" stroke="#5c2c80" stroke-miterlimit="10" stroke-width="1.5"/><path d="M3975.549,340.4l-24.345.506a2.279,2.279,0,0,1-2.338-2.33h0a2.5,2.5,0,0,1,2.414-2.435l11.664-.258a2.275,2.275,0,0,0,2.411-2.308h0a2.134,2.134,0,0,0-2.339-2.2l-12.33.321a2.278,2.278,0,0,1-2.336-2.329h0s-.138-2.243,2.585-2.312l12.156-.317a2.352,2.352,0,0,0,2.417-2.38,2.1,2.1,0,0,0-2.343-2.257l-12.329.321a2.279,2.279,0,0,1-2.337-2.33h0a2.5,2.5,0,0,1,2.414-2.435l25.13-.1" transform="translate(-3893.636 -181.552)" fill="none" stroke="#5c2c80" stroke-miterlimit="10" stroke-width="1.5"/><path d="M4294.434,308.351l-.5,24.346a2.277,2.277,0,0,0,2.33,2.337h0a2.5,2.5,0,0,0,2.435-2.413l.256-11.664a2.276,2.276,0,0,1,2.309-2.411h0a2.132,2.132,0,0,1,2.2,2.338l-.32,12.33a2.279,2.279,0,0,0,2.33,2.337h0s2.244.138,2.312-2.585l.319-12.156a2.353,2.353,0,0,1,2.379-2.417,2.1,2.1,0,0,1,2.258,2.344l-.323,12.329a2.281,2.281,0,0,0,2.332,2.337h0a2.5,2.5,0,0,0,2.435-2.414l.1-25.129" transform="translate(-3996.164 -178.676)" fill="none" stroke="#5c2c80" stroke-miterlimit="10" stroke-width="1.5"/><path d="M3897.284,244.15h-15l-11.722,61.423s180.049.243,178.642.243l-10.784-34.47L3952.691,271V294.4l56.109.39V243.212c.987-32.285,29.328-29.9,29.328-29.9l31.469.246-6.312-17.984.574-9.119c.494-5.668,5.611-4.992,6.038-2.095.494,3.327-2.176,3.409-2.176,3.409h-4.93c-6.243.082-5.5-4.436-5.5-4.436l.739-3.861c3.941-17.416,18.1-20.6,28.588-16.1,12.65,5.422,13.3,18.295,9.529,30.56l6.039,17.83" transform="translate(-3870.558 -135.264)" fill="none" stroke="#5c2c80" stroke-miterlimit="10" stroke-width="1.5"/><line x2="9.378" y2="67.05" transform="translate(22.038 73.251)" fill="none" stroke="#5c2c80" stroke-miterlimit="10" stroke-width="1.5"/><path d="M3999.148,366.678l-30.478,76.427h27.665l-15.942,37.51h30.946l32.353-77.834h68.456s32.821,2.345,34.229-28.6v-6.338" transform="translate(-3899.665 -196.127)" fill="none" stroke="#5c2c80" stroke-miterlimit="10" stroke-width="1.5"/><ellipse cx="32.821" cy="32.821" rx="32.821" ry="32.821" transform="translate(247.334)" fill="none" stroke="#5c2c80" stroke-miterlimit="10" stroke-width="1.5"/><g transform="translate(260.463 22.975)"><path d="M4240.892,163.648a6.8,6.8,0,1,1,13.6,0" transform="translate(-4240.892 -156.849)" fill="none" stroke="#5c2c80" stroke-miterlimit="10" stroke-width="1.5"/><path d="M4260.224,163.648a6.8,6.8,0,0,1,13.6,0" transform="translate(-4246.626 -156.849)" fill="none" stroke="#5c2c80" stroke-miterlimit="10" stroke-width="1.5"/></g><g transform="translate(286.25 37.617)"><path d="M4277.557,182.121a4.454,4.454,0,1,1,8.908,0" transform="translate(-4277.557 -177.667)" fill="none" stroke="#5c2c80" stroke-miterlimit="10" stroke-width="1.5"/><path d="M4290.225,182.121a4.455,4.455,0,0,1,8.909,0" transform="translate(-4281.315 -177.667)" fill="none" stroke="#5c2c80" stroke-miterlimit="10" stroke-width="1.5"/></g></g><path d="M15.14,1.452a1,1,0,0,1,1.721,0L31.105,25.49a1,1,0,0,1-.86,1.51H1.755a1,1,0,0,1-.86-1.51Z" transform="translate(1515 397)" fill="#ac92c3"/></g></svg>