<svg xmlns="http://www.w3.org/2000/svg" xmlns:xlink="http://www.w3.org/1999/xlink" width="401.091" height="289.543" viewBox="0 0 401.091 289.543"><defs><clipPath id="a"><rect width="43.567" height="78.137" transform="translate(0 0.226)" fill="#f5acb5" stroke="#707070" stroke-width="1"/></clipPath><clipPath id="b"><rect width="32.815" height="58.852" transform="translate(0 0.226)" fill="#f5acb5" stroke="#707070" stroke-width="1"/></clipPath></defs><g transform="translate(-1211.5 -192.242)"><g transform="translate(1211.274 452.5) rotate(-90)" clip-path="url(#a)"><circle cx="35.694" cy="35.694" r="35.694" transform="translate(9.403 4.749)" fill="#f5acb5"/></g><g transform="translate(1584.6 482.011) rotate(180)" clip-path="url(#b)"><circle cx="26.885" cy="26.885" r="26.885" transform="translate(7.082 3.632)" fill="#f5acb5"/></g><rect width="29" height="29" rx="14.5" transform="translate(1528 235)" fill="#f5acb5"/><g transform="translate(1263 193)"><path d="M545.3,343.5l14.917,63.521s-46.2,7.7-52.934-30.317" transform="translate(-273.412 -198.928)" fill="none" stroke="#030303" stroke-miterlimit="10" stroke-width="1.5"/><path d="M260.281,425.439c-10.106,49.084-77,38.016-77,38.016l34.122-121.214" transform="translate(-183.285 -198.577)" fill="none" stroke="#030303" stroke-miterlimit="10" stroke-width="1.5"/><ellipse cx="97.086" cy="74.349" rx="97.086" ry="74.349" transform="translate(60.995 135.43)" fill="none" stroke="#030303" stroke-miterlimit="10" stroke-width="1.5"/><path d="M406.049,175.542c.481-6.857,7.411-6.587,7.94-2.887.6,4.21-3.248,4.21-3.248,4.21a89.845,89.845,0,0,1-9.865.241c-4.091-.121-1.684-8.181-1.684-8.181s4.812-28.392,34.648-25.5c22.111,2.14,30.317,26.948,17.8,46.188-3.3,5.077-1.924,14.927-1.924,15.89l27.91-5.293,21.655,60.152-115.07,97.288a3.52,3.52,0,0,1-4.96-.191h0a3.52,3.52,0,0,1,.191-4.96l12.646-11.71a3.212,3.212,0,0,0,.318-4.822h0a3.287,3.287,0,0,0-4.832-.053l-15.346,14.209a3.519,3.519,0,0,1-4.96-.191h0s-2.437-2.254.507-5L382.936,330.9a3.319,3.319,0,0,0,.251-4.9,3.23,3.23,0,0,0-4.893-.108l-15.345,14.208a3.519,3.519,0,0,1-4.96-.19h0a3.52,3.52,0,0,1,.191-4.96L369.669,324.3a3.458,3.458,0,0,0,.155-5.009,3.23,3.23,0,0,0-4.893-.108l-11.489,10.638-46.225,40.249H247.125L225.952,266.132l40.9-9.143s1.925-10.346-.962-19.73c-5.526-17.961-4.571-36.813,13.955-44.754,15.362-6.584,36.092-1.925,41.866,23.58l1.083,5.654s1.083,6.617-8.06,6.5h-7.218s-3.91-.12-3.188-4.993c.629-4.243,8.121-5.233,8.843,3.068l.842,13.354L308.241,254.1l24.061.963s29.106-1.106,35.738,23.119" transform="translate(-195.154 -143.214)" fill="none" stroke="#030303" stroke-miterlimit="10" stroke-width="1.5"/><path d="M393.906,291.075V280.729c-2.887-65.446,47.16-63.281,47.16-63.281H455.02l-3.85-18.527,1.444-8.422" transform="translate(-241.839 -156.368)" fill="none" stroke="#030303" stroke-miterlimit="10" stroke-width="1.5"/><path d="M637.871,348.241a18.407,18.407,0,0,1-36.814,0Z" transform="translate(-299.496 -200.246)" fill="none" stroke="#030303" stroke-miterlimit="10" stroke-width="1.5"/><circle cx="5.053" cy="5.053" r="5.053" transform="translate(338.736 147.995)" fill="none" stroke="#030303" stroke-miterlimit="10" stroke-width="1.5"/><g transform="translate(316.359 105.587)"><path d="M621.557,322.334c0-5.474,2.887-5.474,2.887-10.947s-2.887-5.474-2.887-10.949,2.887-5.474,2.887-10.948" transform="translate(-621.557 -289.491)" fill="none" stroke="#030303" stroke-miterlimit="10" stroke-width="1.5"/></g><g transform="translate(324.299 105.587)"><path d="M632.557,322.334c0-5.474,2.887-5.474,2.887-10.947s-2.887-5.474-2.887-10.949,2.887-5.474,2.887-10.948" transform="translate(-632.557 -289.491)" fill="none" stroke="#030303" stroke-miterlimit="10" stroke-width="1.5"/></g></g></g></svg>