<svg xmlns="http://www.w3.org/2000/svg" xmlns:xlink="http://www.w3.org/1999/xlink" width="577.813" height="284.615" viewBox="0 0 577.813 284.615"><defs><clipPath id="a"><rect width="92" height="165" transform="translate(0 0.226)" fill="#ffd571" stroke="#707070" stroke-width="1"/></clipPath><clipPath id="b"><rect width="43.567" height="78.137" transform="translate(0 0.226)" fill="#ffd571" stroke="#707070" stroke-width="1"/></clipPath></defs><g transform="translate(-1128.383 -216.574)"><g transform="translate(1482.726 366.5) rotate(90)" clip-path="url(#a)"><circle cx="75.375" cy="75.375" r="75.375" transform="translate(19.855 9.777)" fill="#ffd571"/></g><g transform="translate(1575.274 287.5) rotate(-90)" clip-path="url(#b)"><circle cx="35.694" cy="35.694" r="35.694" transform="translate(9.403 4.749)" fill="#ffd571"/></g><path d="M15.14,1.452a1,1,0,0,1,1.721,0L31.105,25.49a1,1,0,0,1-.86,1.51H1.755a1,1,0,0,1-.86-1.51Z" transform="translate(1138 229)" fill="#ffd571"/><rect width="29" height="29" rx="14.5" transform="translate(1596 388)" fill="#ffd571"/><g transform="translate(372.211 -1052.098)"><path d="M1282.9,206.027c-44.7,97.372,22.136,87.693,22.136,87.693l15.313-68.7,38.411-.339V178.771h-19.5v26.544H1292.22l-9.084.111,7.758-21.211-.5-7.9c-.427-4.911-4.86-4.325-5.232-1.815-.427,2.883,1.886,2.954,1.886,2.954h4.271c5.41.071,4.769-3.844,4.769-3.844l-.64-3.345c-3.418-15.09-15.682-17.847-24.771-13.951-10.961,4.7-11.526,15.852-8.256,26.478,1.707,5.551.569,12.527.569,12.527l-16.682-.111s-24.557-2.064-25.411,25.909v46.108l-48.615-.338v-20.27l60.531.812" transform="translate(-260.813 1120.116)" fill="none" stroke="#030303" stroke-miterlimit="10" stroke-width="1.5"/><path d="M1272.8,302.291" transform="translate(-271.705 1081.222)" fill="none" stroke="#030303" stroke-miterlimit="10" stroke-width="1.5"/><path d="M1383.568,361.635" transform="translate(-272.817 1065.582)" fill="none" stroke="#030303" stroke-miterlimit="10" stroke-width="1.5"/><path d="M1251.975,210.548l-35.751,91.814h-58.908l-26.406,66.22h23.969l-13.813,32.5h26.813l28.032-67.438h59.314s28.438,2.031,29.657-24.782" transform="translate(-249.907 1105.404)" fill="none" stroke="#030303" stroke-miterlimit="10" stroke-width="1.5"/><path d="M1163.589,299.608l-21.095.438a1.975,1.975,0,0,1-2.025-2.019h0a2.165,2.165,0,0,1,2.091-2.109l10.106-.224a1.971,1.971,0,0,0,2.09-2h0a1.849,1.849,0,0,0-2.027-1.908l-10.683.279a1.974,1.974,0,0,1-2.024-2.019h0s-.119-1.943,2.24-2l10.532-.275a2.04,2.04,0,0,0,2.095-2.062,1.819,1.819,0,0,0-2.03-1.956l-10.683.278a1.975,1.975,0,0,1-2.025-2.019h0a2.166,2.166,0,0,1,2.091-2.11l21.773-.087" transform="translate(-252.309 1087.147)" fill="none" stroke="#030303" stroke-miterlimit="10" stroke-width="1.5"/><path d="M1398.83,179.172l-.429-21.095a1.956,1.956,0,0,1,1.981-2.025h0a2.145,2.145,0,0,1,2.072,2.091l.22,10.105a1.948,1.948,0,0,0,1.963,2.089h0a1.829,1.829,0,0,0,1.875-2.027l-.274-10.683a1.957,1.957,0,0,1,1.982-2.025h0s1.907-.119,1.966,2.24l.27,10.533a2.022,2.022,0,0,0,2.025,2.094,1.8,1.8,0,0,0,1.92-2.03l-.273-10.683a1.956,1.956,0,0,1,1.982-2.024h0a2.145,2.145,0,0,1,2.071,2.091l.086,21.773" transform="translate(-320.323 1119.887)" fill="none" stroke="#030303" stroke-miterlimit="10" stroke-width="1.5"/><g transform="translate(987.996 1435.331)"><line y1="43.582" x2="169.053" transform="translate(0)" fill="none" stroke="#030303" stroke-miterlimit="10" stroke-width="1.5"/><line x1="1.376" y1="78.76" transform="translate(20.863 39.183)" fill="none" stroke="#030303" stroke-miterlimit="10" stroke-width="1.5"/><line x2="32.286" y2="70.024" transform="translate(148.259 6.34)" fill="none" stroke="#030303" stroke-miterlimit="10" stroke-width="1.5"/></g><g transform="translate(1152.565 1322.914)"><line x2="172.602" y2="26.21" transform="translate(8.706)" fill="none" stroke="#030303" stroke-miterlimit="10" stroke-width="1.5"/><line y1="72.99" x2="29.623" transform="translate(0 4.135)" fill="none" stroke="#030303" stroke-miterlimit="10" stroke-width="1.5"/><line x2="2.236" y2="77.076" transform="translate(159.694 23.887)" fill="none" stroke="#030303" stroke-miterlimit="10" stroke-width="1.5"/></g><g transform="translate(756.789 1269.098)"><line y1="143.733" x2="99.092" transform="translate(0 0)" fill="none" stroke="#030303" stroke-miterlimit="10" stroke-width="1.5"/><line x1="52.67" y1="58.574" transform="translate(12.871 126.735)" fill="none" stroke="#030303" stroke-miterlimit="10" stroke-width="1.5"/><line x2="70.285" y2="31.715" transform="translate(87.545 18.419)" fill="none" stroke="#030303" stroke-miterlimit="10" stroke-width="1.5"/></g></g></g></svg>