<svg xmlns="http://www.w3.org/2000/svg" width="98.987" height="81.286" viewBox="0 0 98.987 81.286">
  <g id="Group_1836" data-name="Group 1836" transform="translate(-397.771 -786.161)">
    <path id="Path_4301" data-name="Path 4301" d="M5035.211,1411.525c17.569-8.1,14.954-27.874,0-34.5s-44.336,21.4-56.87,6.889-32.362,15.652-13.407,25.515S5017.642,1419.626,5035.211,1411.525Z" transform="translate(-3775.655 -2190.649) rotate(20)" fill="#a7c2e4"/>
    <g id="Group_1811" data-name="Group 1811" transform="translate(116 -130)">
      <g id="Rectangle_1469" data-name="Rectangle 1469" transform="translate(309 940)" fill="none" stroke="#494848" stroke-width="2">
        <rect width="32" height="43" stroke="none"/>
        <rect x="1" y="1" width="30" height="41" fill="none"/>
      </g>
      <path id="Path_4270" data-name="Path 4270" d="M4882.9,1438.25v-22.089h29.441l-.066,64.842h-22.755" transform="translate(-4550 -499)" fill="none" stroke="#494848" stroke-width="2"/>
      <path id="Path_4271" data-name="Path 4271" d="M4860.941,1447.863h13.251" transform="translate(-4548.441 -500)" fill="none" stroke="#494848" stroke-width="2"/>
      <path id="Path_4274" data-name="Path 4274" d="M4860.941,1447.863h16.031" transform="translate(-4519.441 -500)" fill="none" stroke="#494848" stroke-width="2"/>
      <path id="Path_4275" data-name="Path 4275" d="M4860.941,1447.863h16.031" transform="translate(-4519.441 -493)" fill="none" stroke="#494848" stroke-width="2"/>
      <path id="Path_4276" data-name="Path 4276" d="M4860.941,1447.863h16.031" transform="translate(-4519.441 -486)" fill="none" stroke="#494848" stroke-width="2"/>
      <path id="Path_4272" data-name="Path 4272" d="M4860.941,1447.992h11.166" transform="translate(-4548.441 -493.129)" fill="none" stroke="#494848" stroke-width="2"/>
      <path id="Path_4273" data-name="Path 4273" d="M4860.941,1448.355h6.626" transform="translate(-4548.441 -486.492)" fill="none" stroke="#494848" stroke-width="2"/>
      <g id="Rectangle_1470" data-name="Rectangle 1470" transform="translate(318 972)" fill="#fff" stroke="#494848" stroke-width="2">
        <rect width="9" height="11" stroke="none"/>
        <rect x="1" y="1" width="7" height="9" fill="none"/>
      </g>
      <g id="Rectangle_1472" data-name="Rectangle 1472" transform="translate(350 921)" fill="#fff" stroke="#494848" stroke-width="2">
        <rect width="9" height="12" stroke="none"/>
        <rect x="1" y="1" width="7" height="10" fill="none"/>
      </g>
    </g>
    <path id="Path_4302" data-name="Path 4302" d="M4993.328,1352.386c-2.5-1.031-7.823-5.12-1.337-7.338s9.786,2.682,8.883,5.735S4995.826,1353.418,4993.328,1352.386Z" transform="translate(-4564 -550)" fill="#a7c2e4"/>
  </g>
</svg>
