<svg xmlns="http://www.w3.org/2000/svg" xmlns:xlink="http://www.w3.org/1999/xlink" width="78" height="74" viewBox="0 0 78 74"><defs><linearGradient id="a" x1="0.552" y1="-0.275" x2="0.5" y2="1" gradientUnits="objectBoundingBox"><stop offset="0" stop-color="#fff"/><stop offset="1" stop-color="#f7f7f7"/></linearGradient><clipPath id="b"><rect width="8.364" height="15.001" fill="none" stroke="#707070" stroke-width="1"/></clipPath></defs><g transform="translate(-13 -113)"><g transform="translate(13 113)" stroke="#f2f2f2" stroke-width="1" fill="url(#a)"><rect width="78" height="74" rx="7" stroke="none"/><rect x="0.5" y="0.5" width="77" height="73" rx="6.5" fill="none"/></g><g transform="translate(19.091 121.108)"><g transform="translate(3.382 51.683) rotate(-90)" clip-path="url(#b)"><circle cx="6.853" cy="6.853" r="6.853" transform="translate(1.805 0.868)" fill="none"/></g><path d="M4140.147,326.881" transform="translate(-4103.744 -297.712)" fill="none" stroke="#5c2c80" stroke-miterlimit="10" stroke-width="1"/><path d="M4212.689,237.228v5.964h4.321V233.02l-17.119-.075c0,4.959.18,9.639.327,12.484.481,9.254,8.764,6.919,8.764,6.919l-.18-15.165Z" transform="translate(-4155.422 -216.751)" fill="none" stroke="#5c2c80" stroke-miterlimit="10" stroke-width="1"/><path d="M3953.571,321.94l-4.674.1a.438.438,0,0,1-.449-.447h0a.48.48,0,0,1,.463-.467l2.24-.05a.436.436,0,0,0,.462-.443h0a.409.409,0,0,0-.449-.423l-2.367.062a.437.437,0,0,1-.449-.447h0s-.026-.431.5-.444l2.334-.061a.452.452,0,0,0,.464-.457.4.4,0,0,0-.45-.433l-2.367.062a.437.437,0,0,1-.448-.447h0a.479.479,0,0,1,.463-.467l4.825-.019" transform="translate(-3937.844 -289.574)" fill="none" stroke="#5c2c80" stroke-miterlimit="10" stroke-width="0.5"/><path d="M4294.025,307.953l-.1,4.674a.437.437,0,0,0,.447.449h0a.48.48,0,0,0,.467-.463l.049-2.239a.438.438,0,0,1,.444-.463h0a.409.409,0,0,1,.422.449l-.062,2.367a.438.438,0,0,0,.448.449h0s.431.026.444-.5l.062-2.334a.451.451,0,0,1,.456-.464.4.4,0,0,1,.434.45l-.062,2.367a.438.438,0,0,0,.448.449h0a.479.479,0,0,0,.467-.463l.02-4.825" transform="translate(-4236.761 -281.251)" fill="none" stroke="#5c2c80" stroke-miterlimit="10" stroke-width="0.5"/><path d="M3875.689,177.4h-2.88l-2.251,11.793,34.3.047-2.07-6.618-16.458-.065v4.491l10.772.075v-9.9c.189-6.2,5.63-5.741,5.63-5.741l6.042.047-1.212-3.453.11-1.751c.1-1.088,1.077-.958,1.16-.4.095.639-.418.654-.418.654h-.947c-1.2.016-1.056-.852-1.056-.852l.142-.741c.756-3.344,3.475-3.954,5.488-3.091,2.429,1.041,2.554,3.512,1.83,5.867l1.159,3.423" transform="translate(-3870.558 -156.491)" fill="none" stroke="#5c2c80" stroke-miterlimit="10" stroke-width="1"/><line x2="1.8" y2="12.873" transform="translate(4.231 15.273)" fill="none" stroke="#5c2c80" stroke-miterlimit="10" stroke-width="1"/><path d="M3974.522,366.678l-5.851,14.673h5.311l-3.061,7.2h5.941l6.211-14.943h13.142s6.3.45,6.572-5.491V366.9" transform="translate(-3955.422 -330.344)" fill="none" stroke="#5c2c80" stroke-miterlimit="10" stroke-width="1"/><ellipse cx="6.301" cy="6.301" rx="6.301" ry="6.301" transform="translate(47.485)" fill="none" stroke="#5c2c80" stroke-miterlimit="10" stroke-width="1"/><g transform="translate(50.006 4.411)"><path d="M4240.892,158.154a1.305,1.305,0,0,1,2.611,0" transform="translate(-4240.892 -156.849)" fill="none" stroke="#5c2c80" stroke-miterlimit="10" stroke-width="1"/><path d="M4260.224,158.154a1.306,1.306,0,0,1,2.611,0" transform="translate(-4257.613 -156.849)" fill="none" stroke="#5c2c80" stroke-miterlimit="10" stroke-width="1"/></g><g transform="translate(54.957 7.222)"><path d="M4277.557,178.522a.855.855,0,0,1,1.71,0" transform="translate(-4277.557 -177.667)" fill="none" stroke="#5c2c80" stroke-miterlimit="10" stroke-width="1"/><path d="M4290.225,178.522a.855.855,0,0,1,1.711,0" transform="translate(-4288.514 -177.667)" fill="none" stroke="#5c2c80" stroke-miterlimit="10" stroke-width="1"/></g><path d="M2.184,1.4a1,1,0,0,1,1.707,0L5.145,3.449a1,1,0,0,1-.853,1.521H1.783A1,1,0,0,1,.93,3.449Z" transform="translate(63.86 46.782)" fill="none"/></g></g></svg>