<svg xmlns="http://www.w3.org/2000/svg" width="41" height="41" viewBox="0 0 41 41">
  <g id="Group_1782" data-name="Group 1782" transform="translate(-1528 -26)">
    <rect id="Rectangle_809" data-name="Rectangle 809" width="41" height="41" rx="8" transform="translate(1528 26)" fill="#e8e9ea"/>
    <g id="Group_989" data-name="Group 989" transform="translate(1535.865 34.838)">
      <path id="Path_2" data-name="Path 2" d="M1.492,4.143A17.647,17.647,0,0,0,.229,8.629a19.262,19.262,0,0,0,.5,8.219A10.2,10.2,0,0,0,3.466,21.83a5.062,5.062,0,0,0,3.549,1.425h.128a5.449,5.449,0,0,0,3.731-1.62,5.309,5.309,0,0,0,.2-7.407,9.341,9.341,0,0,0-4.734-2.6,9.341,9.341,0,0,0,4.734-2.6,5.309,5.309,0,0,0-.2-7.407A5.449,5.449,0,0,0,7.143,0,5.068,5.068,0,0,0,3.466,1.425,9.7,9.7,0,0,0,1.492,4.143Z" transform="translate(8.45)" fill="#d0d0d0"/>
      <circle id="Ellipse_2" data-name="Ellipse 2" cx="3.419" cy="3.419" r="3.419" transform="translate(0 8.208)" fill="#d0d0d0"/>
    </g>
  </g>
</svg>
