<svg xmlns="http://www.w3.org/2000/svg" xmlns:xlink="http://www.w3.org/1999/xlink" width="78" height="74" viewBox="0 0 78 74"><defs><linearGradient id="a" x1="0.552" y1="-0.275" x2="0.5" y2="1" gradientUnits="objectBoundingBox"><stop offset="0" stop-color="#fff"/><stop offset="1" stop-color="#f7f7f7"/></linearGradient></defs><g transform="translate(-15 -112)"><g transform="translate(15 112)" stroke="#f2f2f2" stroke-width="1" fill="url(#a)"><rect width="78" height="74" rx="7" stroke="none"/><rect x="0.5" y="0.5" width="77" height="73" rx="6.5" fill="none"/></g><g transform="translate(23.263 126)"><path d="M3099.73,251.691a5.9,5.9,0,0,0-11.806,0c0,.016,0,.032,0,.048a9.854,9.854,0,0,0-9.141,2.245,12.752,12.752,0,0,0-8.086-2.876,12.883,12.883,0,0,0-2.37.22,5.9,5.9,0,0,0-5.258-4.043,6,6,0,0,0,.041-.683,5.9,5.9,0,1,0-10.055,4.2,8.608,8.608,0,0,0,5.069,15.564,12.809,12.809,0,0,0,23.623,4.03,9.845,9.845,0,0,0,12.785-12.839A5.9,5.9,0,0,0,3099.73,251.691Z" transform="translate(-3043.436 -229.241)" fill="none" stroke="#0093c8" stroke-miterlimit="10" stroke-width="1"/><path d="M3005.332,447.51a3.421,3.421,0,0,0,2.765-.8,4.387,4.387,0,0,0,2.059.87,4.023,4.023,0,1,0,1.16-7.951,4.248,4.248,0,0,0-4.19,1.826,3.541,3.541,0,0,0-.874-.245,3.19,3.19,0,1,0-.919,6.3Z" transform="translate(-3002.437 -402.424)" fill="none" stroke="#0093c8" stroke-miterlimit="10" stroke-width="1"/><path d="M3401.721,152.184a2.953,2.953,0,0,0-2.394.664,3.788,3.788,0,0,0-1.769-.772,3.473,3.473,0,1,0-1.083,6.851,3.667,3.667,0,0,0,3.635-1.533,3.039,3.039,0,0,0,.752.221,2.753,2.753,0,1,0,.859-5.431Z" transform="translate(-3342.854 -152.028)" fill="none" stroke="#0093c8" stroke-miterlimit="10" stroke-width="1"/><path d="M3206.728,209.8l.188,1-.359,3.63L3221,223.444l7.635-7.741,8.59,4.56,2.438-3.711s2.121,5.443-3.11,7.281" transform="translate(-3180.183 -202.338)" fill="none" stroke="#0093c8" stroke-miterlimit="10" stroke-width="1"/><path d="M3176.4,193.566h-8.447c-1.275,0-2.037.007-2.385.53a.974.974,0,0,0,.786,1.617,1.38,1.38,0,0,0,.919-1.273,9.063,9.063,0,0,0,.018-2.121c-.72-5.342-6.319-5-6.319-5,0-.115.215-2.567-.189-3.168-1.532-2.276-.6-5.257,2.042-5.555a3.714,3.714,0,0,1,4.19,2.984s.3.959-.186.981a10.718,10.718,0,0,1-1.18-.01.4.4,0,0,1-.4-.5c.056-.443.885-.489.955.33" transform="translate(-3139.682 -175.137)" fill="none" stroke="#0093c8" stroke-miterlimit="10" stroke-width="1"/><path d="M3334.173,199.608l2.757-3.111v-7.776" transform="translate(-3291.311 -183.98)" fill="none" stroke="#0093c8" stroke-miterlimit="10" stroke-width="1"/><path d="M3177.61,190.252l3.789.015a.377.377,0,0,1,.364.367h0a.344.344,0,0,1-.353.351l-1.859-.048a.316.316,0,0,0-.353.34.355.355,0,0,0,.364.359l1.833.048c.41.01.39.348.39.348h0a.344.344,0,0,1-.353.351l-1.859-.048a.322.322,0,0,0-.353.332h0a.343.343,0,0,0,.364.348l1.759.039a.377.377,0,0,1,.364.367h0a.343.343,0,0,1-.352.351l-4.21-.135-3.135-.024-6.055-.047c-1.275,0-2.037.007-2.385.53a.974.974,0,0,0,.786,1.617,1.38,1.38,0,0,0,.919-1.273,9.063,9.063,0,0,0,.018-2.121c-.72-5.342-6.319-5-6.319-5,0-.115.215-2.567-.189-3.168-1.532-2.276-.6-5.257,2.042-5.555a3.714,3.714,0,0,1,4.19,2.984s.3.959-.186.981a10.718,10.718,0,0,1-1.18-.01.4.4,0,0,1-.4-.5c.056-.443.885-.489.955.33" transform="translate(-3139.682 -175.137)" fill="none" stroke="#0093c8" stroke-miterlimit="10" stroke-width="0.5"/></g></g></svg>