<svg id="Layer_1" xmlns="http://www.w3.org/2000/svg" width="36.689" height="36.688" viewBox="0 0 36.689 36.688">
  <path id="WhatsApp" d="M58.689,37.886A18.046,18.046,0,0,1,31.958,53.544L22,56.688l3.276-9.565a17.618,17.618,0,0,1-2.555-9.238,17.984,17.984,0,0,1,35.968,0Zm-8.91,4.127c-.131-.2-.393-.262-.852-.524-.459-.2-2.621-1.31-3.014-1.441s-.721-.2-.983.2a12.928,12.928,0,0,1-1.376,1.7.767.767,0,0,1-.983.131,11.108,11.108,0,0,1-3.538-2.162A12.514,12.514,0,0,1,36.61,36.9c-.262-.459,0-.655.2-.917a8.319,8.319,0,0,0,.655-.786c.2-.262.262-.459.459-.721a.843.843,0,0,0-.066-.786c-.131-.2-.983-2.359-1.376-3.276-.393-.852-.721-.721-.983-.721s-.524-.066-.852-.066a1.827,1.827,0,0,0-1.179.524,5,5,0,0,0-1.572,3.669,7.951,7.951,0,0,0,1.834,4.521c.2.262,3.079,4.848,7.534,6.617,4.521,1.769,4.521,1.179,5.307,1.114s2.621-1.048,2.948-2.1A4.2,4.2,0,0,0,49.779,42.013Z" transform="translate(-22 -20)" fill="#299f5a" fill-rule="evenodd"/>
</svg>
